<svg width="48" height="48" viewBox="0 0 48 48" fill="none" xmlns="http://www.w3.org/2000/svg">
<rect x="0.5" y="0.5" width="47" height="47" rx="7.5" fill="white"/>
<rect x="0.5" y="0.5" width="47" height="47" rx="7.5" stroke="#D7D9E4"/>
<path d="M36 24C36 30.6274 30.6274 36 24 36C17.3726 36 12 30.6274 12 24C12 17.3726 17.3726 12 24 12C30.6274 12 36 17.3726 36 24Z" fill="white"/>
<path fill-rule="evenodd" clip-rule="evenodd" d="M26.9696 16.287C26.9696 17.0184 26.6465 17.7499 26.1906 18.2776C25.706 18.8609 24.8701 19.296 24.2051 19.2961C24.1291 19.2961 24.053 19.2868 24.0056 19.2776C23.9961 19.2406 23.9771 19.1294 23.9771 19.0183C23.9771 18.2776 24.3666 17.5462 24.7846 17.0833C25.3166 16.4815 26.2001 16.0278 26.9411 16C26.9601 16.0834 26.9696 16.1852 26.9696 16.287ZM29.583 20.8943C29.6014 20.8825 29.6141 20.8744 29.62 20.8699C28.6321 19.4905 27.131 19.4534 26.713 19.4533C26.0742 19.4533 25.5025 19.6741 25.0218 19.8598C24.6733 19.9945 24.3726 20.1106 24.129 20.1106C23.8603 20.1106 23.5526 19.9894 23.2092 19.8542C22.7757 19.6835 22.2853 19.4903 21.7446 19.4903C19.9207 19.4903 18.0682 20.9624 18.0682 23.74C18.0682 25.4713 18.7522 27.2952 19.5976 28.471C20.3291 29.4709 20.9656 30.2857 21.8776 30.2857C22.3101 30.2857 22.6272 30.1545 22.9607 30.0166C23.3304 29.8636 23.7202 29.7024 24.3096 29.7024C24.9047 29.7024 25.2605 29.8538 25.6036 29.9998C25.9233 30.1358 26.232 30.2672 26.713 30.2672C27.7105 30.2672 28.366 29.3877 28.993 28.5081C29.696 27.5082 29.9905 26.5267 30 26.4805C29.943 26.462 28.0335 25.7121 28.0335 23.5919C28.0335 21.8854 29.3343 21.0534 29.583 20.8943Z" fill="#11183C"/>
</svg>
