<svg width="78" height="84" viewBox="0 0 78 84" fill="none" xmlns="http://www.w3.org/2000/svg">
<path d="M53.625 14.8916V73.5541L48.75 83.4666H0V14.8916H53.625Z" fill="#FDBF00"/>
<path d="M53.625 14.8916V73.5541L48.75 83.4666H26.8125V14.8916H53.625Z" fill="#FEED01"/>
<path d="M65.8125 44.3042C63.9112 44.3042 62.2539 45.0353 60.9375 46.2055C59.6211 45.0351 57.9637 44.3042 56.0625 44.3042C52.0161 44.3042 48.75 47.5703 48.75 51.6167C48.75 55.6628 52.0161 58.9292 56.0625 58.9292H65.8125C69.8589 58.9292 73.125 55.6628 73.125 51.6167C73.125 47.5703 69.8589 44.3042 65.8125 44.3042ZM58.5 54.0542H56.0625C54.6973 54.0542 53.625 52.9815 53.625 51.6167C53.625 50.2515 54.6973 49.1792 56.0625 49.1792C57.4277 49.1792 58.5 50.2515 58.5 51.6167V54.0542ZM65.8125 54.0542H63.375V51.6167C63.375 50.2515 64.4473 49.1792 65.8125 49.1792C67.1777 49.1792 68.25 50.2515 68.25 51.6167C68.25 52.9815 67.1777 54.0542 65.8125 54.0542Z" fill="#FDBF00"/>
<path d="M65.8125 44.3042C63.9112 44.3042 62.2539 45.0353 60.9375 46.2055V58.9292H65.8125C69.8589 58.9292 73.125 55.6628 73.125 51.6167C73.125 47.5703 69.8589 44.3042 65.8125 44.3042ZM65.8125 54.0542H63.375V51.6167C63.375 50.2515 64.4473 49.1792 65.8125 49.1792C67.1777 49.1792 68.25 50.2515 68.25 51.6167C68.25 52.9815 67.1777 54.0542 65.8125 54.0542Z" fill="#FEED01"/>
<path d="M48.75 63.8042V83.4667H73.125V63.8042H48.75Z" fill="#00C8C8"/>
<path d="M60.9375 63.8042H73.125V83.4667H60.9375V63.8042Z" fill="#1CADB5"/>
<path d="M78 54.0542V68.6792H43.875V54.0542H58.5L60.9375 58.9292L63.375 54.0542H78Z" fill="#64E1DC"/>
<path d="M78 54.0542V68.6792H60.9375V58.9292L63.375 54.0542H78Z" fill="#00C8C8"/>
<path d="M58.5 54.0542H63.375V73.5542H58.5V54.0542Z" fill="#FDBF00"/>
<path d="M60.9375 54.0542H63.375V73.5542H60.9375V54.0542Z" fill="#FEED01"/>
<path d="M39 12.4541V24.8041H34.125V12.4541C34.125 8.40769 30.8589 5.1416 26.8125 5.1416C22.7661 5.1416 19.5 8.40769 19.5 12.4541V24.8041H14.625V12.4541C14.625 5.7266 20.085 0.266602 26.8125 0.266602C33.54 0.266602 39 5.7266 39 12.4541Z" fill="#537983"/>
<path d="M39 12.4541V24.8041H34.125V12.4541C34.125 8.40769 30.8589 5.1416 26.8125 5.1416V0.266602C33.54 0.266602 39 5.7266 39 12.4541Z" fill="#3E5959"/>
</svg>
