<svg width="322" height="287" viewBox="0 0 322 287" fill="none" xmlns="http://www.w3.org/2000/svg">
<path d="M246.81 232.191C246.81 232.191 247.08 231.811 247.62 231.101C247.76 230.921 247.91 230.721 248.08 230.501C248.23 230.271 248.37 230.001 248.54 229.711C248.87 229.131 249.28 228.481 249.57 227.651C249.73 227.241 249.92 226.821 250.08 226.361C250.21 225.891 250.35 225.401 250.49 224.881C250.66 224.371 250.74 223.811 250.83 223.231C250.91 222.651 251.06 222.051 251.08 221.411C251.35 218.871 251.19 215.911 250.68 212.641C249.67 206.081 246.88 198.351 242.62 189.951C238.37 181.531 232.51 172.481 225.32 163.051C218.12 153.611 209.47 143.861 199.52 134.071C189.56 124.291 178.29 114.471 165.65 105.161C159.33 100.511 152.66 96.0107 145.63 91.7607C138.61 87.5107 131.2 83.5407 123.39 80.1007C115.58 76.7007 107.34 73.7507 98.65 72.3407C94.32 71.6707 89.85 71.3507 85.46 72.0207C83.27 72.3607 81.11 72.9507 79.09 73.8707C77.09 74.8407 75.26 76.1407 73.74 77.7807C72.28 79.4707 71.2 81.4407 70.45 83.5407C69.78 85.6607 69.42 87.8707 69.34 90.0807C69.17 94.5207 70 98.9307 71.16 103.161C73.54 111.641 77.42 119.491 81.68 126.871C85.99 134.241 90.77 141.151 95.8 147.641C100.82 154.141 106.06 160.261 111.39 166.011C122.08 177.511 133.12 187.591 143.97 196.371C154.83 205.141 165.5 212.631 175.7 218.701C185.89 224.771 195.55 229.561 204.4 232.831C213.23 236.111 221.22 237.991 227.85 238.251C231.16 238.381 234.12 238.211 236.61 237.651C237.24 237.561 237.82 237.331 238.39 237.191C238.96 237.041 239.5 236.891 239.99 236.661C240.49 236.461 240.96 236.271 241.42 236.091C241.86 235.881 242.25 235.641 242.64 235.431C243.43 235.051 244.03 234.571 244.56 234.171C244.82 233.971 245.08 233.801 245.29 233.621C245.49 233.431 245.67 233.251 245.83 233.101C246.47 232.501 246.81 232.191 246.81 232.191C246.81 232.191 246.49 232.521 245.86 233.161C245.7 233.321 245.52 233.501 245.32 233.691C245.11 233.871 244.86 234.051 244.59 234.251C244.06 234.651 243.46 235.141 242.67 235.531C242.29 235.741 241.89 235.981 241.45 236.201C241 236.391 240.52 236.581 240.02 236.791C239.53 237.021 238.98 237.171 238.41 237.331C237.84 237.481 237.26 237.711 236.62 237.801C234.12 238.381 231.14 238.571 227.82 238.451C221.16 238.221 213.13 236.361 204.27 233.101C195.39 229.851 185.71 225.081 175.49 219.021C165.26 212.951 154.57 205.471 143.68 196.711C132.81 187.931 121.74 177.851 111.02 166.341C105.67 160.581 100.42 154.461 95.39 147.951C90.35 141.451 85.55 134.521 81.23 127.131C76.95 119.731 73.05 111.851 70.65 103.301C69.49 99.0407 68.64 94.5907 68.81 90.0707C68.89 87.8107 69.26 85.5607 69.95 83.3807C70.71 81.2307 71.84 79.1907 73.34 77.4407C74.91 75.7407 76.81 74.4007 78.86 73.4007C80.94 72.4607 83.15 71.8507 85.38 71.5107C89.85 70.8307 94.37 71.1607 98.73 71.8407C107.49 73.2607 115.76 76.2307 123.6 79.6407C131.43 83.0907 138.85 87.0707 145.89 91.3407C152.93 95.6007 159.61 100.121 165.94 104.781C178.59 114.111 189.87 123.961 199.83 133.771C209.78 143.591 218.43 153.361 225.62 162.831C232.81 172.291 238.65 181.381 242.89 189.831C247.13 198.261 249.9 206.021 250.89 212.621C251.38 215.911 251.54 218.891 251.25 221.441C251.23 222.081 251.06 222.681 250.98 223.271C250.89 223.851 250.8 224.411 250.62 224.931C250.47 225.451 250.33 225.951 250.2 226.421C250.03 226.881 249.84 227.301 249.67 227.711C249.37 228.541 248.95 229.191 248.61 229.771C248.44 230.051 248.3 230.331 248.14 230.561C247.97 230.781 247.81 230.981 247.67 231.151C247.1 231.841 246.81 232.191 246.81 232.191Z" fill="black"/>
<path d="M278.82 154.92C278.82 154.92 278.77 154.46 278.7 153.57C278.68 153.35 278.66 153.1 278.64 152.82C278.6 152.55 278.52 152.25 278.46 151.93C278.32 151.28 278.19 150.52 277.86 149.71C277.71 149.3 277.57 148.86 277.39 148.41C277.17 147.97 276.95 147.51 276.71 147.03C276.49 146.54 276.19 146.06 275.87 145.57C275.54 145.08 275.26 144.53 274.85 144.04C273.36 141.96 271.27 139.86 268.71 137.76C263.59 133.54 256.37 129.62 247.6 126.19C238.82 122.74 228.43 119.88 216.78 117.63C205.13 115.38 192.18 113.86 178.24 113.18C164.3 112.51 149.35 112.69 133.72 114.15C125.91 114.89 117.93 115.97 109.86 117.48C101.79 118.98 93.6199 120.95 85.4999 123.58C77.4099 126.25 69.2899 129.52 61.8699 134.26C58.1899 136.64 54.6399 139.38 51.8099 142.8C50.3999 144.51 49.1899 146.39 48.2799 148.42C47.4399 150.48 46.9299 152.67 46.8899 154.9C46.9299 157.13 47.4299 159.33 48.2699 161.38C49.1799 163.41 50.3799 165.29 51.7999 167C54.6299 170.43 58.1799 173.16 61.8599 175.55C69.2799 180.29 77.3999 183.57 85.4899 186.24C93.6099 188.87 101.78 190.84 109.85 192.34C117.92 193.85 125.9 194.93 133.71 195.67C149.34 197.13 164.29 197.31 178.23 196.64C192.17 195.96 205.12 194.44 216.77 192.19C228.42 189.94 238.81 187.08 247.59 183.63C256.36 180.2 263.58 176.28 268.7 172.06C271.26 169.96 273.35 167.86 274.84 165.78C275.25 165.29 275.53 164.74 275.86 164.25C276.18 163.76 276.49 163.28 276.7 162.79C276.94 162.31 277.17 161.85 277.38 161.41C277.56 160.96 277.7 160.52 277.85 160.11C278.18 159.3 278.31 158.54 278.45 157.89C278.52 157.57 278.59 157.27 278.63 157C278.65 156.72 278.67 156.47 278.69 156.25C278.77 155.37 278.82 154.92 278.82 154.92C278.82 154.92 278.81 155.38 278.75 156.27C278.74 156.5 278.72 156.75 278.7 157.02C278.67 157.3 278.59 157.59 278.53 157.92C278.4 158.57 278.28 159.34 277.95 160.16C277.8 160.57 277.67 161.02 277.49 161.47C277.28 161.91 277.05 162.38 276.82 162.86C276.6 163.36 276.3 163.84 275.98 164.34C275.65 164.83 275.37 165.39 274.96 165.88C273.48 167.98 271.38 170.1 268.83 172.22C263.7 176.48 256.48 180.44 247.7 183.9C238.91 187.38 228.51 190.27 216.85 192.55C205.18 194.83 192.22 196.37 178.26 197.07C164.3 197.76 149.33 197.6 133.67 196.15C125.84 195.41 117.85 194.34 109.76 192.83C101.67 191.33 93.4799 189.36 85.3299 186.72C77.2099 184.05 69.0599 180.76 61.5799 175.98C57.8699 173.57 54.2799 170.81 51.3999 167.33C49.9599 165.59 48.7299 163.66 47.7999 161.58C46.9399 159.47 46.4199 157.2 46.3799 154.89C46.4199 152.58 46.9399 150.32 47.8099 148.2C48.7399 146.11 49.9799 144.19 51.4199 142.45C54.3099 138.97 57.8999 136.21 61.5999 133.81C69.0799 129.04 77.2299 125.75 85.3499 123.08C93.4899 120.44 101.68 118.47 109.77 116.97C117.86 115.46 125.85 114.39 133.68 113.65C149.33 112.2 164.31 112.04 178.26 112.73C192.22 113.43 205.18 114.97 216.85 117.25C228.51 119.53 238.92 122.42 247.71 125.9C256.49 129.37 263.72 133.32 268.84 137.58C271.4 139.7 273.49 141.82 274.98 143.92C275.39 144.41 275.67 144.97 276 145.46C276.32 145.96 276.62 146.44 276.84 146.94C277.08 147.43 277.3 147.89 277.51 148.33C277.69 148.78 277.83 149.23 277.97 149.64C278.3 150.46 278.42 151.22 278.55 151.88C278.61 152.21 278.69 152.5 278.72 152.78C278.74 153.06 278.75 153.31 278.77 153.53C278.81 154.46 278.82 154.92 278.82 154.92Z" fill="black"/>
<path d="M236.41 58.7303C236.41 58.7303 236.02 58.4903 235.27 58.0003C235.08 57.8803 234.87 57.7403 234.64 57.5903C234.4 57.4503 234.12 57.3303 233.82 57.1903C233.22 56.9003 232.54 56.5403 231.7 56.3103C231.28 56.1803 230.85 56.0203 230.38 55.8903C229.9 55.7903 229.4 55.6903 228.87 55.5803C228.35 55.4503 227.79 55.4003 227.2 55.3503C226.61 55.3103 226.01 55.2003 225.37 55.2203C222.82 55.1203 219.87 55.4903 216.65 56.2303C210.17 57.6903 202.66 61.0003 194.57 65.8303C186.47 70.6503 177.84 77.1203 168.92 84.9403C160 92.7703 150.87 102.07 141.79 112.67C132.72 123.28 123.7 135.2 115.28 148.45C111.08 155.08 107.04 162.04 103.29 169.35C99.5299 176.65 96.0799 184.31 93.1899 192.34C90.3399 200.37 87.9599 208.79 87.1599 217.56C86.7899 221.93 86.7799 226.41 87.7399 230.75C88.2299 232.91 88.9699 235.02 90.0199 236.98C91.1299 238.9 92.5499 240.65 94.2899 242.05C96.0799 243.39 98.1199 244.34 100.26 244.93C102.42 245.45 104.65 245.66 106.87 245.59C111.31 245.45 115.65 244.32 119.79 242.88C128.08 239.92 135.65 235.51 142.72 230.75C149.78 225.95 156.34 220.7 162.47 215.24C168.61 209.79 174.35 204.14 179.72 198.42C190.45 186.97 199.75 175.25 207.76 163.83C215.76 152.39 222.49 141.23 227.85 130.64C233.21 120.05 237.32 110.09 239.97 101.04C242.63 92.0103 243.96 83.9003 243.76 77.2703C243.66 73.9603 243.29 71.0203 242.56 68.5703C242.43 67.9503 242.16 67.3903 241.98 66.8303C241.79 66.2703 241.6 65.7403 241.34 65.2703C241.11 64.7903 240.88 64.3203 240.67 63.8903C240.43 63.4703 240.16 63.0903 239.93 62.7203C239.49 61.9603 238.97 61.3903 238.55 60.8903C238.33 60.6403 238.15 60.4003 237.95 60.2003C237.74 60.0103 237.56 59.8503 237.39 59.6903C236.74 59.0503 236.41 58.7303 236.41 58.7303C236.41 58.7303 236.76 59.0203 237.44 59.6103C237.61 59.7603 237.8 59.9203 238.01 60.1103C238.21 60.3103 238.4 60.5503 238.62 60.8003C239.05 61.3003 239.59 61.8703 240.03 62.6303C240.27 63.0003 240.54 63.3803 240.78 63.8003C241 64.2403 241.23 64.7003 241.47 65.1903C241.73 65.6703 241.93 66.2003 242.12 66.7603C242.31 67.3203 242.58 67.8803 242.71 68.5103C243.46 70.9703 243.85 73.9203 243.97 77.2403C244.2 83.9003 242.89 92.0403 240.26 101.1C237.63 110.18 233.54 120.17 228.19 130.79C222.84 141.41 216.12 152.6 208.12 164.06C200.11 175.51 190.81 187.25 180.07 198.73C174.69 204.46 168.95 210.12 162.8 215.59C156.66 221.07 150.08 226.33 143.01 231.15C135.92 235.93 128.33 240.36 119.97 243.34C115.8 244.8 111.42 245.94 106.89 246.09C104.63 246.16 102.36 245.95 100.14 245.41C97.9399 244.8 95.8299 243.82 93.9799 242.43C92.1799 240.98 90.7099 239.18 89.5699 237.2C88.4899 235.19 87.7299 233.03 87.2399 230.83C86.2599 226.41 86.2799 221.89 86.6499 217.49C87.4599 208.65 89.8599 200.2 92.7199 192.15C95.6199 184.1 99.0799 176.42 102.86 169.11C106.62 161.79 110.67 154.82 114.88 148.18C123.32 134.92 132.37 122.99 141.46 112.38C150.57 101.78 159.73 92.4803 168.68 84.6503C177.63 76.8303 186.29 70.3703 194.42 65.5603C202.54 60.7403 210.09 57.4503 216.6 56.0103C219.85 55.2903 222.81 54.9303 225.37 55.0503C226.01 55.0303 226.62 55.1503 227.21 55.1903C227.8 55.2403 228.36 55.3003 228.89 55.4303C229.42 55.5403 229.92 55.6503 230.4 55.7503C230.87 55.8903 231.31 56.0503 231.72 56.1903C232.57 56.4303 233.25 56.8103 233.84 57.1003C234.14 57.2503 234.42 57.3803 234.66 57.5203C234.89 57.6803 235.1 57.8203 235.28 57.9503C236.04 58.4603 236.41 58.7303 236.41 58.7303Z" fill="black"/>
<path d="M45.36 202.83C47.04 204.51 47.04 207.24 45.36 208.93C43.68 210.61 40.95 210.61 39.26 208.93C37.58 207.25 37.58 204.52 39.26 202.83C40.95 201.15 43.68 201.15 45.36 202.83Z" fill="black"/>
<path d="M288.63 69.2299C288.63 71.6099 286.7 73.5399 284.32 73.5399C281.94 73.5399 280.01 71.6099 280.01 69.2299C280.01 66.8499 281.94 64.9199 284.32 64.9199C286.7 64.9199 288.63 66.8399 288.63 69.2299Z" fill="black"/>
<path d="M72.5899 217.01C72.5899 217.62 72.0999 218.11 71.4899 218.11C70.8799 218.11 70.3899 217.62 70.3899 217.01C70.3899 216.4 70.8799 215.91 71.4899 215.91C72.0999 215.91 72.5899 216.4 72.5899 217.01Z" fill="black"/>
<path d="M95.98 96.1898C95.98 96.7998 95.49 97.2898 94.88 97.2898C94.27 97.2898 93.78 96.7998 93.78 96.1898C93.78 95.5798 94.27 95.0898 94.88 95.0898C95.49 95.0898 95.98 95.5798 95.98 96.1898Z" fill="black"/>
<path d="M266.97 154.92C266.97 155.53 266.48 156.02 265.87 156.02C265.26 156.02 264.77 155.53 264.77 154.92C264.77 154.31 265.26 153.82 265.87 153.82C266.48 153.82 266.97 154.31 266.97 154.92Z" fill="black"/>
<path d="M282.2 103.83C282.2 104.44 281.71 104.93 281.1 104.93C280.49 104.93 280 104.44 280 103.83C280 103.22 280.49 102.73 281.1 102.73C281.71 102.74 282.2 103.23 282.2 103.83Z" fill="black"/>
<path d="M160.605 89.1514C135.841 89.1514 115.756 109.77 115.756 135.214C115.756 160.648 135.831 181.277 160.605 181.277C185.368 181.277 205.453 160.659 205.453 135.214C205.453 109.77 185.378 89.1514 160.605 89.1514ZM160.605 174.377C139.55 174.377 122.474 156.849 122.474 135.214C122.474 113.59 139.54 96.0516 160.605 96.0516C181.659 96.0516 198.735 113.579 198.735 135.214C198.735 156.839 181.669 174.377 160.605 174.377Z" fill="#FEED01"/>
<path d="M160.815 161.819C158.935 161.819 157.135 161.049 155.806 159.683L134.821 138.13C132.052 135.286 132.052 130.676 134.821 127.831C137.59 124.987 142.079 124.987 144.849 127.831L160.815 144.23L200.105 103.876C202.874 101.032 207.363 101.032 210.132 103.876C212.901 106.72 212.901 111.331 210.132 114.175L165.833 159.673C164.504 161.059 162.694 161.819 160.815 161.819Z" fill="#FEED01"/>
</svg>
