<svg width="36" height="32" viewBox="0 0 36 32" fill="none" xmlns="http://www.w3.org/2000/svg">
<rect width="36" height="32" rx="16" fill="#F7F7F7"/>
<path fill-rule="evenodd" clip-rule="evenodd" d="M31.0446 14.2297C31.2689 14.2297 31.3951 14.3032 31.3951 14.4351H31.3986C31.3986 14.5263 31.325 14.5948 31.1953 14.6201L31.5002 14.8964H31.2304L30.971 14.6378V14.8964H30.7502V14.2297H31.0446ZM30.9675 14.5263H31.0026C31.1147 14.5263 31.1708 14.4959 31.1708 14.4376C31.1708 14.3793 31.1147 14.3514 31.0061 14.3514H30.9675V14.5263Z" fill="black"/>
<path fill-rule="evenodd" clip-rule="evenodd" d="M30.5341 14.42C30.5341 14.2356 30.7002 14.0874 30.9108 14.0874C31.1164 14.0874 31.2841 14.2356 31.2841 14.42C31.2841 14.6045 31.118 14.7541 30.9108 14.7541C30.7035 14.7541 30.5341 14.6045 30.5341 14.42ZM30.6098 14.4215C30.6098 14.5725 30.7446 14.6945 30.9108 14.6945C31.0769 14.6945 31.2101 14.5696 31.2101 14.4215C31.2101 14.2733 31.0785 14.1484 30.9108 14.1484C30.743 14.1484 30.6098 14.2704 30.6098 14.4215Z" fill="black"/>
<path fill-rule="evenodd" clip-rule="evenodd" d="M28.8408 14.1165C29.7853 14.1165 30.3272 14.5239 30.3272 15.2313C30.3272 15.8096 29.988 16.1892 29.3701 16.3018L30.6932 17.8925H29.6854L28.5509 16.3752H28.4439V17.8925H27.6261V14.1165H28.8408ZM28.4439 15.8551H28.6832C29.2068 15.8551 29.4841 15.6375 29.4841 15.2705C29.4841 14.9035 29.2068 14.7112 28.6958 14.7112H28.4439V15.8551Z" fill="black"/>
<path d="M24.7589 17.8925H27.0828V17.2534H25.5767V16.2335H27.0265V15.5945H25.5767V14.7568H27.0828V14.1165H24.7589V17.8925Z" fill="black"/>
<path d="M22.3647 16.6524L21.2443 14.1165H20.3505L22.1324 17.9899H22.573L24.3887 14.1165H23.4992L22.3647 16.6524Z" fill="black"/>
<path d="M20.5827 16.0006C20.5827 17.1053 19.5876 18 18.3588 18C17.13 18 16.1348 17.1041 16.1348 16.0006C16.1348 14.8972 17.13 14 18.3588 14C19.5876 14 20.5827 14.8959 20.5827 15.9994V16.0006Z" fill="url(#paint0_linear_249_4992)"/>
<g style="mix-blend-mode:multiply" opacity="0.65">
<path d="M20.5827 16.0006C20.5827 17.1053 19.5876 18 18.3588 18C17.13 18 16.1348 17.1041 16.1348 16.0006C16.1348 14.8972 17.13 14 18.3588 14C19.5876 14 20.5827 14.8959 20.5827 15.9994V16.0006Z" fill="url(#paint1_linear_249_4992)"/>
</g>
<path d="M12.6244 16.0071C12.6244 17.1168 13.5942 17.9773 14.8413 17.9773C15.1946 17.9773 15.4958 17.9153 15.8688 17.7571V16.8903C15.5408 17.1852 15.2509 17.3041 14.8793 17.3041C14.0545 17.3041 13.4689 16.7663 13.4689 16.002C13.4689 15.2769 14.0728 14.7049 14.8413 14.7049C15.2326 14.7049 15.5282 14.8302 15.8688 15.1301V14.2633C15.5099 14.0988 15.2129 14.0317 14.861 14.0317C13.6195 14.0317 12.6244 14.9099 12.6244 16.0083V16.0071Z" fill="black"/>
<path d="M11.1577 15.5654C10.6665 15.4022 10.5215 15.2933 10.5215 15.0896C10.5215 14.8517 10.7791 14.6707 11.1324 14.6707C11.3787 14.6707 11.58 14.7619 11.7925 14.977L12.2218 14.4721C11.8699 14.1949 11.4477 14.0532 10.9874 14.0532C10.2442 14.0532 9.67696 14.5176 9.67696 15.1352C9.67696 15.6552 9.94158 15.9223 10.7101 16.1703C11.031 16.2715 11.1943 16.3398 11.2759 16.3854C11.4392 16.4816 11.5223 16.617 11.5223 16.7764C11.5223 17.0826 11.252 17.3092 10.886 17.3092C10.4962 17.3092 10.1809 17.1333 9.99225 16.8055L9.46301 17.2636C9.84024 17.7622 10.2935 17.9824 10.917 17.9824C11.7686 17.9824 12.3654 17.4737 12.3654 16.7422C12.3654 16.1424 12.0895 15.8704 11.1577 15.5641V15.5654Z" fill="black"/>
<rect x="8.33417" y="14.1165" width="0.819197" height="3.77602" fill="black"/>
<path fill-rule="evenodd" clip-rule="evenodd" d="M4.5 14.1165H5.70205C7.03078 14.1165 7.95695 14.8922 7.95836 16.0057C7.95836 16.5625 7.67403 17.0991 7.19547 17.4559C6.7915 17.7583 6.33264 17.8925 5.69642 17.8925H4.5V14.1165ZM5.53737 17.2534C6.06661 17.2534 6.40161 17.1623 6.65919 16.9535C6.94211 16.727 7.11242 16.3638 7.11242 16.0019C7.11242 15.64 6.94211 15.2882 6.65919 15.0617C6.38753 14.8415 6.06661 14.7568 5.53737 14.7568H5.31779V17.2534H5.53737Z" fill="black"/>
<defs>
<linearGradient id="paint0_linear_249_4992" x1="20.7027" y1="16.9103" x2="19.3842" y2="14.6154" gradientUnits="userSpaceOnUse">
<stop stop-color="#F9A020"/>
<stop offset="0.25" stop-color="#F89B20"/>
<stop offset="0.53" stop-color="#F68D20"/>
<stop offset="0.62" stop-color="#F68820"/>
<stop offset="0.73" stop-color="#F58120"/>
<stop offset="1" stop-color="#F47521"/>
</linearGradient>
<linearGradient id="paint1_linear_249_4992" x1="21.4533" y1="16.5615" x2="19.5578" y2="12.4424" gradientUnits="userSpaceOnUse">
<stop stop-color="#F68820" stop-opacity="0.01"/>
<stop offset="0.11" stop-color="#EE7F22" stop-opacity="0.14"/>
<stop offset="0.31" stop-color="#E37226" stop-opacity="0.35"/>
<stop offset="0.5" stop-color="#DB6829" stop-opacity="0.52"/>
<stop offset="0.69" stop-color="#D5602C" stop-opacity="0.64"/>
<stop offset="0.85" stop-color="#D15C2D" stop-opacity="0.71"/>
<stop offset="0.98" stop-color="#D05B2E" stop-opacity="0.74"/>
</linearGradient>
</defs>
</svg>
