<svg width="36" height="32" viewBox="0 0 36 32" fill="none" xmlns="http://www.w3.org/2000/svg">
<rect width="36" height="32" rx="16" fill="#006FCF"/>
<path fill-rule="evenodd" clip-rule="evenodd" d="M10.5346 11.9435L10.3041 11.3333H7.98691L7.98684 12.461L7.43222 11.3333H5.68008L3.75 15.2577H5.95064L6.24527 14.6856H6.8885L7.12426 15.2577H17.4098L17.4345 14.8433L17.8301 15.2577H20.6265L20.6264 14.9004L20.7124 14.9579L20.7719 14.9967C20.9428 15.1064 21.1339 15.2123 21.3428 15.2577H23.5146L23.8092 14.6856H24.4899L24.7846 15.2577H27.5814L27.5813 14.8047L27.9183 15.2577H29.8211V11.3333H27.7906L27.7906 11.711L27.5195 11.3333H25.5509L25.5508 12.3412L25.0551 11.3333H21.9688L21.9325 11.3335L21.8856 11.3345C21.388 11.349 20.9605 11.4858 20.6265 11.7147V11.3853L10.7651 11.3333L10.5346 11.9435ZM18.1264 16.6899L16.4153 16.742L15.0408 16.742L14.6014 17.249L14.162 16.742H9.57828V20.6664L14.162 20.6666L14.5862 20.125L15.0294 20.6664H17.7974L17.7973 19.7303L18.0788 19.7303L18.1245 19.7298C18.4275 19.7242 18.7073 19.6625 18.9497 19.5545L18.9497 20.6664H20.9462L20.9709 20.252L21.3664 20.6664L30.1923 20.6666C31.1754 20.6541 31.8839 20.0968 31.8839 19.2502L31.8837 19.2231L31.8828 19.1881C31.8685 18.817 31.7255 18.5119 31.4846 18.2906L31.4807 18.2872L32.25 16.794H29.631L29.5743 16.7946C29.4991 16.7964 29.4254 16.8017 29.3535 16.8104L29.362 16.794H26.7429L26.6961 16.7944C26.4164 16.7999 26.1575 16.854 25.931 16.948L25.9311 16.742H22.1324L22.1324 16.9231C21.8815 16.8066 21.5861 16.742 21.2616 16.742H18.9497L18.9498 16.8561C18.7119 16.7496 18.4372 16.6899 18.1378 16.6899H18.1264Z" fill="white"/>
<path fill-rule="evenodd" clip-rule="evenodd" d="M7.58758 14.6736H8.3538L6.99819 11.9172H6.11409L4.75848 14.6736H5.5247L5.8194 14.1015H7.35182L7.58758 14.6736ZM9.35577 12.4373V14.6736H8.64849V11.9172H9.82728L10.5346 13.7895L11.2418 11.9172H12.4206V14.6736H11.7134V12.4373L10.8293 14.6736H10.1809L9.35577 12.4373ZM26.9198 12.8014V14.6736H26.2125V11.9172H27.1555L28.2754 13.4774L28.4522 13.7375V11.9172H29.1595V14.6736H28.2754L27.0376 13.0094L26.9198 12.8014ZM17.1358 20.0823V19.1462H18.0788L18.1065 19.1459C18.7405 19.1357 19.1987 18.7739 19.1987 18.21C19.1987 17.9661 19.1079 17.7451 18.9446 17.5791C18.7658 17.3973 18.4998 17.2816 18.1709 17.2743L18.1378 17.2739L16.4285 17.3259V20.0823H17.1358ZM20.3185 20.0823H19.6112V17.3259H21.2616L21.2904 17.3262C21.9221 17.3368 22.3225 17.6977 22.3225 18.21C22.3225 18.3992 22.2616 18.5668 22.1453 18.7032L22.1324 18.718C21.9972 18.8686 21.7925 18.9793 21.526 19.0363L21.4973 19.0422L22.5582 20.0823H21.6741L20.7311 19.0942H20.3775L20.3185 20.0823ZM25.2694 20.0823V19.5102H23.5013V18.9381H25.2105V18.3661H23.5013V17.846H25.2694V17.3259H22.794V20.0823H25.2694ZM27.3023 20.1341L27.2734 20.1343H25.741V19.5622H27.3323L27.3463 19.562C27.5183 19.5567 27.6844 19.4527 27.627 19.2502C27.627 19.0992 27.5166 18.9969 27.3493 18.9905L27.3323 18.9901H26.6251L26.5919 18.9899C26.2743 18.9845 26.0279 18.9013 25.8721 18.7401L25.8676 18.7354C25.747 18.6081 25.682 18.4329 25.682 18.21C25.682 17.7491 26.0822 17.389 26.7136 17.3782L26.7429 17.3779H28.3343L28.0396 17.95H26.684L26.6671 17.9503C26.4997 17.9568 26.3893 18.0591 26.3893 18.21C26.3893 18.361 26.4997 18.4633 26.6671 18.4698L26.684 18.4701H27.3913L27.4192 18.4703C27.9918 18.4784 28.3343 18.7384 28.3343 19.2502C28.3343 19.7625 27.9339 20.1234 27.3023 20.1341ZM30.1903 20.1341L30.1614 20.1343H28.629V19.5622H30.2204L30.2387 19.562C30.4622 19.5567 30.5725 19.4527 30.5151 19.2502C30.5151 19.0992 30.4047 18.9969 30.2373 18.9905L30.2204 18.9901H29.5131L29.4739 18.9898C29.2665 18.9856 29.0898 18.948 28.9487 18.8769C28.7056 18.7543 28.5701 18.532 28.5701 18.21C28.5701 17.7491 28.9702 17.389 29.6017 17.3782L29.631 17.3779H31.2223L30.9276 17.95H29.572L29.5551 17.9503C29.3877 17.9568 29.2773 18.0591 29.2773 18.21C29.2773 18.361 29.3877 18.4633 29.5551 18.4698L29.572 18.4701H30.2793L30.3072 18.4703C30.8798 18.4784 31.2223 18.7384 31.2223 19.2502C31.2223 19.7625 30.822 20.1234 30.1903 20.1341ZM14.6014 19.1462L13.8352 20.0303H12.9511L14.1888 18.6781L12.9511 17.3259H13.8352L14.6014 18.21L15.3676 17.3259H16.2517L15.014 18.6781L16.2517 20.0823H15.3676L14.6014 19.1462ZM10.9471 19.5102V18.9381H12.6564V18.3661H10.9471V17.846H12.7153V17.3259H10.2399V20.0823H12.7153V19.5102H10.9471ZM23.0887 14.6736L23.3834 14.1015H24.9158L25.2105 14.6736H25.9767L24.6211 11.9172H23.6781L22.3225 14.6736H23.0887ZM21.9688 11.9172H22.794V12.4893H22.0278L22.0014 12.4896C21.4963 12.4996 21.2123 12.7987 21.2029 13.2461L21.2026 13.2694V13.3214L21.2029 13.3447C21.2123 13.7921 21.4963 14.0912 22.0014 14.1013L22.0278 14.1015H22.2046L21.9099 14.6736L21.8802 14.6734C21.0238 14.662 20.5072 14.1559 20.4955 13.3493L20.4953 13.3214L20.4955 13.2435C20.507 12.4853 21.0245 11.9298 21.9375 11.9174L21.9688 11.9172ZM19.9649 14.6736V11.9692H19.2576V14.6736H19.9649ZM16.8411 13.6855L16.7822 14.6736H16.0749V11.9172H17.7252L17.7541 11.9175C18.3857 11.9281 18.7861 12.289 18.7861 12.8014C18.7861 13.2098 18.502 13.5181 17.9896 13.6276L17.9609 13.6335L19.0219 14.6736H18.1378L17.1947 13.6855H16.8411ZM15.5444 14.6736V14.1015H13.7762V13.5294H15.4855V12.9574H13.7762V12.4373H15.5444V11.9172H13.069V14.6736H15.5444ZM6.34985 12.9574L6.58561 12.3853L6.82137 12.9574L7.11607 13.5815H6.05515L6.34985 12.9574ZM23.9728 12.9574L24.2085 12.3853L24.4443 12.9574L24.739 13.5815H23.6781L23.9728 12.9574ZM21.6741 18.21C21.6741 18.054 21.5563 17.898 21.2616 17.898L20.3775 17.846V18.5221H21.2616C21.5563 18.5221 21.6741 18.3661 21.6741 18.21ZM18.0788 18.6261C18.3735 18.6261 18.4914 18.4701 18.4914 18.2621L18.4911 18.2466C18.4825 18.0463 18.3072 17.898 18.0199 17.898H17.1358V18.6261H18.0788ZM18.1378 12.8014C18.1378 12.6453 18.0199 12.4893 17.7252 12.4893L16.8411 12.4373V13.1134H17.7252C18.0199 13.1134 18.1378 12.9574 18.1378 12.8014Z" fill="#006FCF"/>
</svg>
