<svg width="200" height="200" viewBox="0 0 200 200" fill="none" xmlns="http://www.w3.org/2000/svg">
<g clip-path="url(#clip0_333_5071)">
<path d="M18.75 12.5C17.0924 12.5 15.5027 13.1585 14.3306 14.3306C13.1585 15.5027 12.5 17.0924 12.5 18.75V68.75C12.5 70.4076 11.8415 71.9973 10.6694 73.1694C9.49732 74.3415 7.9076 75 6.25 75C4.5924 75 3.00269 74.3415 1.83058 73.1694C0.65848 71.9973 0 70.4076 0 68.75V18.75C0 13.7772 1.97544 9.00805 5.49175 5.49175C9.00805 1.97544 13.7772 0 18.75 0L68.75 0C70.4076 0 71.9973 0.65848 73.1694 1.83058C74.3415 3.00269 75 4.5924 75 6.25C75 7.9076 74.3415 9.49732 73.1694 10.6694C71.9973 11.8415 70.4076 12.5 68.75 12.5H18.75ZM125 6.25C125 4.5924 125.658 3.00269 126.831 1.83058C128.003 0.65848 129.592 0 131.25 0L181.25 0C186.223 0 190.992 1.97544 194.508 5.49175C198.025 9.00805 200 13.7772 200 18.75V68.75C200 70.4076 199.342 71.9973 198.169 73.1694C196.997 74.3415 195.408 75 193.75 75C192.092 75 190.503 74.3415 189.331 73.1694C188.158 71.9973 187.5 70.4076 187.5 68.75V18.75C187.5 17.0924 186.842 15.5027 185.669 14.3306C184.497 13.1585 182.908 12.5 181.25 12.5H131.25C129.592 12.5 128.003 11.8415 126.831 10.6694C125.658 9.49732 125 7.9076 125 6.25ZM6.25 125C7.9076 125 9.49732 125.658 10.6694 126.831C11.8415 128.003 12.5 129.592 12.5 131.25V181.25C12.5 182.908 13.1585 184.497 14.3306 185.669C15.5027 186.842 17.0924 187.5 18.75 187.5H68.75C70.4076 187.5 71.9973 188.158 73.1694 189.331C74.3415 190.503 75 192.092 75 193.75C75 195.408 74.3415 196.997 73.1694 198.169C71.9973 199.342 70.4076 200 68.75 200H18.75C13.7772 200 9.00805 198.025 5.49175 194.508C1.97544 190.992 0 186.223 0 181.25L0 131.25C0 129.592 0.65848 128.003 1.83058 126.831C3.00269 125.658 4.5924 125 6.25 125ZM193.75 125C195.408 125 196.997 125.658 198.169 126.831C199.342 128.003 200 129.592 200 131.25V181.25C200 186.223 198.025 190.992 194.508 194.508C190.992 198.025 186.223 200 181.25 200H131.25C129.592 200 128.003 199.342 126.831 198.169C125.658 196.997 125 195.408 125 193.75C125 192.092 125.658 190.503 126.831 189.331C128.003 188.158 129.592 187.5 131.25 187.5H181.25C182.908 187.5 184.497 186.842 185.669 185.669C186.842 184.497 187.5 182.908 187.5 181.25V131.25C187.5 129.592 188.158 128.003 189.331 126.831C190.503 125.658 192.092 125 193.75 125Z" fill="black"/>
</g>
<defs>
<clipPath id="clip0_333_5071">
<rect width="200" height="200" fill="white"/>
</clipPath>
</defs>
</svg>
