<svg width="48" height="48" viewBox="0 0 48 48" fill="none" xmlns="http://www.w3.org/2000/svg">
<rect x="0.5" y="0.5" width="47" height="47" rx="7.5" fill="white"/>
<rect x="0.5" y="0.5" width="47" height="47" rx="7.5" stroke="#D7D9E4"/>
<path d="M36 24C36 30.6274 30.6274 36 24 36C17.3726 36 12 30.6274 12 24C12 17.3726 17.3726 12 24 12C30.6274 12 36 17.3726 36 24Z" fill="white"/>
<path d="M28.6707 27.4684L29.2027 23.9995H25.8744V21.7484C25.8744 20.7994 26.3393 19.8744 27.8301 19.8744H29.3434V16.9211C29.3434 16.9211 27.97 16.6867 26.657 16.6867C23.9158 16.6867 22.1242 18.3481 22.1242 21.3557V23.9995H19.0771V27.4684H22.1242V35.8542C22.7352 35.9501 23.3621 36 24 36C24.6379 36 25.2634 35.9501 25.8744 35.8542V27.4684H28.6707Z" fill="#1877F2"/>
</svg>
