<svg width="165" height="124" viewBox="0 0 165 124" fill="none" xmlns="http://www.w3.org/2000/svg">
<g clip-path="url(#clip0_8_663)">
<rect width="165" height="124" fill="white"/>
<path d="M283 82.2096C279.355 72.2016 273.773 63.0091 266.573 55.1569C259.372 47.3047 250.695 40.9466 241.036 36.4456C231.376 31.9447 220.925 29.3889 210.277 28.9244C199.63 28.4598 188.995 30.0955 178.98 33.7381C168.965 37.3807 159.766 42.9589 151.908 50.1541C144.05 57.3493 137.688 66.0206 133.184 75.673C128.679 85.3254 126.122 95.7699 125.657 106.41C125.192 117.05 126.829 127.677 130.474 137.685L206.737 109.948L283 82.2096Z" fill="#F0F0F0"/>
<path d="M93.407 31.9976L93.4065 31.9974C83.6661 28.6719 73.1631 28.7255 62.1884 32.1786C36.8787 40.1421 29.9456 59.0554 28.1222 66.7792C28.0169 67.2554 28.0365 67.7515 28.1789 68.2175C28.3215 68.6843 28.5821 69.1036 28.9335 69.4337L28.6255 69.7617L28.9335 69.4337C29.2849 69.7637 29.7146 69.9928 30.1791 70.099C30.6113 70.1977 31.0601 70.1869 31.4865 70.0682L31.5894 70.0374C32.0473 69.9003 32.4616 69.64 32.7885 69.2828C33.1155 68.9255 33.3428 68.4845 33.4458 68.0055L33.4475 67.9976L33.4476 67.9976C35.0447 61.1724 41.1971 44.5372 63.7726 37.434C86.8998 30.1573 101.196 41.6304 105.887 45.3955L105.89 45.3978C106.461 45.853 107.184 46.0604 107.902 45.9774C108.619 45.8944 109.279 45.5273 109.736 44.9523C109.736 44.9521 109.736 44.952 109.736 44.9518L109.753 44.9312L93.407 31.9976ZM93.407 31.9976C101.425 34.7239 106.75 38.9899 109.31 41.0636L109.311 41.0643M93.407 31.9976L109.311 41.0643M109.311 41.0643C109.871 41.5156 110.234 42.1767 110.317 42.9033M109.311 41.0643L110.317 42.9033M110.317 42.9033C110.401 43.6298 110.197 44.3592 109.753 44.9309L110.317 42.9033Z" fill="#FEED01" stroke="#111111" stroke-width="0.9"/>
<path d="M67.6437 97.9639L67.6436 97.964L67.7283 98.1065C68.061 98.5532 71.3176 102.838 76.909 106.907C82.5861 111.039 90.641 114.927 100.472 114.388C100.675 114.376 100.876 114.34 101.072 114.282L101.14 114.26L101.145 114.259C101.723 114.076 102.227 113.705 102.579 113.2C102.931 112.696 103.11 112.087 103.089 111.468C103.089 111.466 103.089 111.465 103.089 111.464L103.088 111.445L103.088 111.444C103.043 110.715 102.716 110.035 102.18 109.553C101.645 109.072 100.946 108.828 100.237 108.873L100.233 108.873C89.179 109.477 80.5338 103.215 75.9081 98.8644C72.991 96.1367 70.7196 92.7714 69.2643 89.022L69.2638 89.0208L69.229 88.93C68.6638 87.4609 68.1008 85.6677 67.8261 83.8235C67.552 81.9832 67.56 80.0595 68.1688 78.3496L68.169 78.349C69.0775 75.8092 71.2305 74.091 74.5715 73.0399C77.6186 72.0811 79.7381 72.2606 81.5394 73.5188C83.2806 74.7349 84.6627 76.928 86.3659 79.7602L86.3661 79.7605C88.0465 82.5593 89.9874 85.7807 92.9318 87.9457C95.8435 90.0866 99.7764 91.2194 105.51 89.7341C109.843 88.6031 113.116 85.4422 114.705 80.8165C117.097 73.8545 115.254 64.8738 109.947 57.9904L109.947 57.9902C105.786 52.5892 99.4793 47.8462 92.6598 44.9808C83.8721 41.3111 74.5419 40.843 65.6637 43.6365C46.4526 49.6811 37.7414 67.0903 37.6289 81.6903C37.5889 88.4012 40.0677 95.865 42.6338 101.769C45.1276 107.507 47.6816 111.723 48.0088 112.263C48.0163 112.276 48.0227 112.286 48.0278 112.295C48.422 112.915 49.0379 113.351 49.7415 113.511C50.4463 113.672 51.1853 113.544 51.7996 113.154L51.8037 113.151L51.8279 113.136L51.8283 113.136C52.1271 112.945 52.3867 112.697 52.592 112.403C52.7973 112.11 52.9442 111.778 53.0239 111.426C53.1035 111.074 53.1144 110.709 53.0558 110.353C52.9972 109.997 52.8704 109.657 52.683 109.351C52.6829 109.351 52.6828 109.351 52.6827 109.351L53.0662 109.115L67.6437 97.9639ZM67.6437 97.9639L67.637 97.9533M67.6437 97.9639L67.637 97.9533M67.637 97.9533C67.6333 97.9474 67.6286 97.9399 67.6228 97.9308C67.3881 97.5617 65.4688 94.5429 63.9859 90.472C62.4612 86.2864 61.43 81.0751 63.0658 76.5015C64.561 72.3412 67.8675 69.3954 73.0089 67.7776C77.7856 66.2747 81.6228 66.7334 84.8809 69.103L84.882 69.1038M67.637 97.9533L84.882 69.1038M84.882 69.1038C87.5807 71.0542 89.3227 73.9716 91.0632 76.8878L91.0634 76.8881M84.882 69.1038L91.0634 76.8881M91.0634 76.8881C92.8518 79.8794 94.3502 82.2433 96.3009 83.6065C98.301 85.0043 100.712 85.3156 104.212 84.4114L104.213 84.4113M91.0634 76.8881L104.213 84.4113M104.213 84.4113C107.428 83.58 108.911 81.0178 109.574 79.0884L109.575 79.087M104.213 84.4113L109.575 79.087M109.575 79.087C111.36 73.8389 109.77 66.7691 105.655 61.4488L109.575 79.087Z" fill="#FEED01" stroke="#111111" stroke-width="0.9"/>
<path d="M53.279 96.2566L53.2869 96.2823L53.2977 96.3179C58.2302 106.92 65.0673 114.473 74.8081 120.095C75.1344 120.28 75.4937 120.395 75.8644 120.435C76.2354 120.474 76.6105 120.436 76.9671 120.324C77.6166 120.117 78.1696 119.67 78.5172 119.069C78.5172 119.069 78.5173 119.069 78.5173 119.069L53.279 96.2566ZM53.279 96.2566L53.2682 96.2319M53.279 96.2566L53.2682 96.2319M53.2682 96.2319C50.1644 89.1655 48.3188 78.4088 52.4075 69.3562C55.4173 62.6959 61.0694 57.9949 69.2388 55.4245C78.8561 52.3985 87.7912 54.6173 95.1508 61.8365C98.5085 65.1796 101.24 69.1187 103.211 73.4607C103.482 74.1414 103.48 74.9037 103.206 75.5833C102.93 76.2656 102.403 76.8076 101.742 77.0946C101.08 77.3815 100.335 77.3915 99.666 77.1226C98.997 76.8537 98.4563 76.3262 98.1635 75.6516L98.1636 75.6516M53.2682 96.2319L98.1636 75.6516M98.1636 75.6516L98.1595 75.6428M98.1636 75.6516L98.1595 75.6428M98.1595 75.6428C96.4489 71.9252 94.0868 68.556 91.1889 65.7009L91.1862 65.6983M98.1595 75.6428L91.1862 65.6983M91.1862 65.6983C85.3102 60.0042 78.4418 58.3068 70.808 60.7087C64.2598 62.7691 59.6957 66.4324 57.3555 71.6277C54 79.0632 55.7355 88.2875 58.2133 93.9353L58.2132 93.9353M91.1862 65.6983L58.2132 93.9353M58.2132 93.9353L58.217 93.9437M58.2132 93.9353L58.217 93.9437M58.217 93.9437C62.6379 103.486 68.7805 110.27 77.5194 115.304L77.5199 115.304M58.217 93.9437L77.5199 115.304M77.5199 115.304C77.8257 115.48 78.0951 115.715 78.3124 115.998M77.5199 115.304L78.3124 115.998M78.3124 115.998C78.5297 116.28 78.6905 116.604 78.7854 116.951M78.3124 115.998L78.7854 116.951M78.7854 116.951C78.8803 117.298 78.9073 117.66 78.8647 118.017M78.7854 116.951L78.8647 118.017M78.8647 118.017C78.8221 118.375 78.7108 118.72 78.5375 119.033M78.8647 118.017L78.5375 119.033M78.5375 119.033C78.5375 119.033 78.5375 119.033 78.5375 119.033L78.5375 119.033Z" fill="#FEED01" stroke="#111111" stroke-width="0.9"/>
<path d="M77.5443 88.7712C79.7909 88.7712 81.6121 86.9162 81.6121 84.628C81.6121 82.3397 79.7909 80.4847 77.5443 80.4847C75.2978 80.4847 73.4766 82.3397 73.4766 84.628C73.4766 86.9162 75.2978 88.7712 77.5443 88.7712Z" fill="#CFCFCF"/>
<path d="M35.4785 31.7098C36.7631 31.7088 38.03 32.0156 39.1779 32.6056C40.3258 33.1956 41.3228 34.0525 42.0889 35.1075L46.8363 28.7562L32.5918 17.6086L21.6973 32.1839L27.8366 36.9884C28.451 35.4293 29.5068 34.0937 30.8685 33.1532C32.2302 32.2126 33.8356 31.71 35.4785 31.7098Z" fill="#F0F0F0"/>
<path d="M119.006 97.5635H104.003V109.485H119.006V97.5635Z" fill="#FEED01"/>
<path d="M120.507 108.548H106.103C105.944 108.548 105.792 108.476 105.679 108.349C105.567 108.221 105.503 108.048 105.503 107.867V96.6271C105.503 96.4465 105.567 96.2733 105.679 96.1456C105.792 96.0179 105.944 95.9461 106.103 95.9459H120.507C120.666 95.9461 120.819 96.0179 120.931 96.1456C121.044 96.2733 121.107 96.4465 121.107 96.6271V107.867C121.107 108.048 121.044 108.221 120.931 108.349C120.819 108.476 120.666 108.548 120.507 108.548ZM106.103 96.6271V107.867H120.507L120.507 96.6271H106.103Z" fill="#3F3D56"/>
<path d="M118.856 96.201H118.256C118.256 94.7105 117.735 93.281 116.806 92.227C115.878 91.1731 114.618 90.581 113.305 90.581C111.992 90.581 110.733 91.1731 109.804 92.227C108.875 93.281 108.354 94.7105 108.354 96.201H107.754C107.754 94.5298 108.339 92.927 109.38 91.7453C110.421 90.5636 111.833 89.8997 113.305 89.8997C114.777 89.8997 116.189 90.5636 117.23 91.7453C118.272 92.927 118.856 94.5298 118.856 96.201Z" fill="#3F3D56"/>
<path d="M114.806 100.884C114.806 100.588 114.738 100.296 114.608 100.039C114.479 99.7811 114.293 99.5663 114.068 99.4156C113.842 99.2649 113.587 99.1835 113.325 99.1795C113.064 99.1754 112.807 99.2489 112.578 99.3926C112.349 99.5363 112.158 99.7453 112.022 99.9988C111.887 100.252 111.812 100.542 111.805 100.838C111.798 101.135 111.86 101.428 111.984 101.689C112.107 101.95 112.289 102.17 112.511 102.327V104.155C112.511 104.274 112.531 104.391 112.571 104.5C112.611 104.61 112.67 104.709 112.743 104.793C112.817 104.876 112.905 104.943 113.001 104.988C113.098 105.033 113.201 105.057 113.305 105.057C113.516 105.057 113.718 104.962 113.867 104.793C114.016 104.624 114.099 104.394 114.099 104.155V102.327C114.315 102.175 114.494 101.962 114.617 101.71C114.741 101.457 114.805 101.173 114.806 100.884Z" fill="#3F3D56"/>
</g>
<defs>
<clipPath id="clip0_8_663">
<rect width="165" height="124" fill="white"/>
</clipPath>
</defs>
</svg>
