<svg width="48" height="48" viewBox="0 0 48 48" fill="none" xmlns="http://www.w3.org/2000/svg">
<rect x="0.5" y="0.5" width="47" height="47" rx="7.5" fill="white"/>
<rect x="0.5" y="0.5" width="47" height="47" rx="7.5" stroke="#D7D9E4"/>
<path d="M36 24C36 30.6274 30.6274 36 24 36C17.3726 36 12 30.6274 12 24C12 17.3726 17.3726 12 24 12C30.6274 12 36 17.3726 36 24Z" fill="white"/>
<path d="M31.5 24.18C31.5 23.6533 31.4538 23.1533 31.3746 22.6667H23.9183V25.6733H28.1875C27.9962 26.66 27.4353 27.4933 26.6039 28.06V30.06H29.1509C30.6422 28.6667 31.5 26.6133 31.5 24.18Z" fill="#4285F4"/>
<path d="M23.9183 32C26.0562 32 27.8444 31.28 29.1509 30.06L26.6039 28.06C25.8912 28.54 24.9872 28.8333 23.9183 28.8333C21.8529 28.8333 20.1043 27.4267 19.4774 25.5267H16.8512V27.5867C18.1511 30.2 20.8235 32 23.9183 32Z" fill="#34A853"/>
<path d="M19.4774 25.5267C19.3125 25.0467 19.2267 24.5333 19.2267 24C19.2267 23.4667 19.3191 22.9533 19.4774 22.4733V20.4133H16.8512C16.3101 21.4933 16 22.7067 16 24C16 25.2933 16.3101 26.5067 16.8512 27.5867L19.4774 25.5267Z" fill="#FBBC05"/>
<path d="M23.9183 19.1667C25.0862 19.1667 26.1288 19.5733 26.9536 20.3667L29.2103 18.0867C27.8444 16.7933 26.0562 16 23.9183 16C20.8235 16 18.1511 17.8 16.8512 20.4133L19.4774 22.4733C20.1043 20.5733 21.8529 19.1667 23.9183 19.1667Z" fill="#EA4335"/>
</svg>
