<svg width="57" height="60" viewBox="0 0 57 60" fill="none" xmlns="http://www.w3.org/2000/svg">
<path d="M55.6098 21.3007L28.4902 46.2949L0.870117 20.6084L55.6098 21.3007Z" fill="#FEED01"/>
<path d="M35.7856 40.0845C35.7856 40.0845 55.7756 59.0375 55.9418 58.9823C56.1079 58.9272 55.9418 21.3828 55.9418 21.3828L35.7856 40.0845Z" fill="#FEED01"/>
<path d="M20.9955 40.1848C20.7781 40.2461 0.870117 58.9846 0.870117 58.9846H55.9421L35.628 40.5157L28.4061 46.6815L20.9955 40.1848Z" fill="#FEED01"/>
<path d="M1.15271 21.3843L20.8063 39.9982L0.654297 58.6141L1.15271 21.3843Z" fill="#FEED01"/>
<path d="M55.6098 21.3007L28.4902 41.6772L0.870117 20.6084L55.6098 21.3007Z" fill="#97D0F1"/>
<path d="M20.9955 43.5056C20.7781 43.5669 0.870117 58.9825 0.870117 58.9825H55.9421L35.628 43.8345L28.4061 50.0003L20.9955 43.5036V43.5056Z" fill="#97D0F1"/>
<path d="M2.67258 26.1498L17.7174 40.0786L0.654297 58.6149L2.67258 26.1498Z" fill="#97D0F1"/>
<path d="M54.2744 26.1498L39.2275 40.0786L56.2927 58.6149L54.2744 26.1498Z" fill="#97D0F1"/>
<path d="M56.3046 59.9993H0.748544C0.364989 59.9993 0.0532227 59.6889 0.0532227 59.3069V20.6924C0.0532227 20.3104 0.364989 20 0.748544 20H56.3046C56.6881 20 56.9999 20.3104 56.9999 20.6924V59.3069C56.9999 59.6889 56.6881 59.9993 56.3046 59.9993ZM1.44387 58.6146H55.6092V21.3847H1.44387V58.6146Z" fill="#FEED01"/>
<path d="M28.4734 47.4895C28.3011 47.4895 28.1309 47.4262 27.9975 47.3016L0.219531 21.2494C-0.0614693 20.986 -0.0737759 20.5489 0.188764 20.2691C0.453356 19.9914 0.892291 19.9791 1.17124 20.2405L28.4734 45.8474L35.3876 39.3609C35.6666 39.0995 36.1076 39.1118 36.3701 39.3895C36.6327 39.6673 36.6203 40.1064 36.3414 40.3678L28.9492 47.3016C28.8159 47.4262 28.6436 47.4895 28.4734 47.4895Z" fill="#FEED01"/>
<path d="M35.8655 40.5577C35.6809 40.5577 35.4963 40.4841 35.3589 40.3412C35.0964 40.0634 35.1087 39.6243 35.3876 39.3629L55.7755 20.2404C56.0545 19.979 56.4955 19.9913 56.758 20.269C57.0205 20.5468 57.0082 20.9859 56.7293 21.2473L36.3434 40.3677C36.2101 40.4944 36.0378 40.5556 35.8676 40.5556L35.8655 40.5577Z" fill="#FEED01"/>
<path d="M56.3047 59.9999C56.1345 59.9999 55.9643 59.9386 55.8309 59.814L35.1067 40.5588C34.8257 40.2974 34.8113 39.8604 35.0718 39.5806C35.3323 39.3007 35.7733 39.2865 36.0543 39.5458L56.7785 58.801C57.0595 59.0625 57.0739 59.4995 56.8134 59.7793C56.676 59.9264 56.4914 59.9999 56.3047 59.9999Z" fill="#FEED01"/>
<path d="M0.748836 59.9993C0.564237 59.9993 0.379638 59.9258 0.242215 59.7808C-0.0203255 59.503 -0.00801896 59.0639 0.27093 58.8025L20.8024 39.5473C21.0814 39.2859 21.5223 39.2981 21.7849 39.5759C22.0474 39.8537 22.0351 40.2928 21.7562 40.5542L1.22469 59.8114C1.09137 59.9381 0.919077 59.9993 0.748836 59.9993Z" fill="#FEED01"/>
</svg>
