<svg width="375" height="346" viewBox="0 0 375 346" fill="none" xmlns="http://www.w3.org/2000/svg">
<path d="M72.0531 236.427L148.444 280.527C149.383 281.004 150.422 281.252 151.475 281.252C152.528 281.252 153.567 281.004 154.506 280.527L299.147 197.01C300.82 196.044 300.82 194.476 299.147 193.51L222.749 149.41C221.81 148.934 220.771 148.686 219.718 148.686C218.665 148.686 217.626 148.934 216.687 149.41L72.0531 232.927C70.3801 233.9 70.3801 235.461 72.0531 236.427Z" fill="#696F8C"/>
<path d="M113.339 256.916C114.641 257.576 116.08 257.919 117.539 257.919C118.999 257.919 120.437 257.576 121.739 256.916C124.063 255.572 124.063 253.416 121.739 252.058C120.437 251.399 118.999 251.056 117.539 251.056C116.08 251.056 114.641 251.399 113.339 252.058C111.015 253.402 111.015 255.6 113.339 256.916Z" fill="#4A4D58"/>
<path d="M148.444 280.534L72.053 236.434C70.555 235.573 70.401 234.229 71.577 233.263C70.8304 233.855 70.2169 234.597 69.7767 235.441C69.3364 236.285 69.0792 237.213 69.022 238.163V241.012C69.0783 242.064 69.3822 243.088 69.9089 244C70.4356 244.913 71.1702 245.688 72.053 246.262L148.444 290.362C149.379 290.849 150.422 291.089 151.475 291.062V281.255C150.42 281.276 149.377 281.028 148.444 280.534Z" fill="#7E8295"/>
<path d="M299.147 206.859C300.029 206.284 300.763 205.509 301.29 204.597C301.816 203.684 302.121 202.661 302.178 201.609V198.76C302.119 197.81 301.86 196.882 301.419 196.038C300.978 195.193 300.363 194.451 299.616 193.86C300.799 194.826 300.645 196.17 299.147 197.038L154.506 280.534C153.572 281.022 152.529 281.263 151.475 281.234V291.09C152.529 291.119 153.572 290.878 154.506 290.39L299.147 206.859Z" fill="#4A4D58"/>
<path d="M161.037 271.393L88.9372 229.757C87.9292 229.176 87.9292 228.238 88.9372 227.657L207.531 159.148C208.095 158.861 208.719 158.712 209.351 158.712C209.984 158.712 210.607 158.861 211.171 159.148L283.306 200.777C284.314 201.351 284.314 202.296 283.306 202.877L164.67 271.393C164.107 271.679 163.485 271.829 162.854 271.829C162.222 271.829 161.6 271.679 161.037 271.393Z" fill="white"/>
<path d="M142.284 215.371L184.935 239.99L158.013 255.537C157.542 255.772 157.023 255.894 156.497 255.894C155.971 255.894 155.453 255.772 154.982 255.537L115.362 232.661C115.179 232.599 115.02 232.481 114.908 232.324C114.795 232.167 114.735 231.979 114.735 231.786C114.735 231.593 114.795 231.405 114.908 231.248C115.02 231.091 115.179 230.973 115.362 230.911L142.284 215.371Z" fill="#E6E6E6"/>
<path d="M184.9 239.99L179.874 220.012C179.76 219.535 179.495 219.108 179.118 218.794C178.737 218.471 178.265 218.273 177.767 218.227L142.256 215.371L184.9 239.99Z" fill="#E0E0E0"/>
<path d="M184.9 239.99L146.729 238.415C146.272 238.397 145.836 238.217 145.5 237.906C145.164 237.596 144.95 237.176 144.895 236.721L142.249 215.364L184.9 239.99Z" fill="#E0E0E0"/>
<path d="M184.9 239.99L146.729 238.415C146.272 238.397 145.836 238.217 145.5 237.906C145.164 237.596 144.95 237.176 144.895 236.721L142.249 215.364L146.96 236.364C147.002 236.551 147.103 236.72 147.248 236.846C147.393 236.972 147.574 237.048 147.765 237.064L184.9 239.99Z" fill="white"/>
<path d="M150.81 238.352L156.501 256.412L158.013 255.537L150.81 238.352Z" fill="white"/>
<path d="M113.85 231.786L115.362 230.911L145.126 235.069L113.85 231.786Z" fill="white"/>
<path d="M166.546 206.39L200.475 225.99C200.945 226.228 201.464 226.352 201.991 226.352C202.517 226.352 203.036 226.228 203.506 225.99L251.659 198.2C251.842 198.138 252.001 198.021 252.113 197.864C252.226 197.707 252.286 197.519 252.286 197.325C252.286 197.132 252.226 196.944 252.113 196.787C252.001 196.63 251.842 196.513 251.659 196.45L217.73 176.85C217.26 176.612 216.741 176.488 216.215 176.488C215.688 176.488 215.169 176.612 214.699 176.85L166.546 204.64C166.363 204.703 166.204 204.82 166.092 204.977C165.979 205.134 165.919 205.322 165.919 205.515C165.919 205.709 165.979 205.897 166.092 206.054C166.204 206.211 166.363 206.328 166.546 206.39Z" fill="#E6E6E6"/>
<path d="M193.524 203.8C193.12 203.172 192.88 202.452 192.827 201.707C192.775 200.962 192.911 200.216 193.223 199.537C193.853 198.137 195.225 196.793 197.332 195.582C199.642 194.224 202.192 193.323 204.843 192.929C207.429 192.556 210.061 192.651 212.613 193.209C215.245 193.782 217.771 194.767 220.096 196.128C222.345 197.421 223.876 198.755 224.688 200.132C225.084 200.718 225.321 201.398 225.375 202.104C225.429 202.81 225.299 203.517 224.996 204.157C224.38 205.466 223.085 206.691 221.125 207.825C219.246 208.961 217.131 209.65 214.944 209.841C213.123 210.018 211.291 209.643 209.687 208.763C209.399 208.638 209.142 208.454 208.93 208.222C208.719 207.991 208.56 207.717 208.462 207.419C208.415 207.161 208.438 206.896 208.528 206.65C208.618 206.404 208.771 206.186 208.973 206.019C207.845 206.111 206.71 206.033 205.606 205.788C204.523 205.555 203.484 205.153 202.526 204.598C200.911 203.665 200.067 202.652 199.992 201.56C199.917 200.468 200.69 199.465 202.309 198.55C204.263 197.404 206.499 196.83 208.763 196.891C211.075 196.942 213.336 197.586 215.329 198.76C216.154 199.22 216.889 199.825 217.499 200.545C217.984 201.079 218.3 201.743 218.409 202.456L212.109 206.11C211.598 206.404 211.318 206.663 211.276 206.887C211.234 207.111 211.416 207.349 211.815 207.587C212.687 208.01 213.684 208.095 214.615 207.825C215.986 207.504 217.297 206.968 218.5 206.236C220.082 205.326 221.083 204.346 221.503 203.317C221.713 202.818 221.794 202.273 221.736 201.735C221.678 201.196 221.485 200.681 221.174 200.237C220.329 199.03 219.205 198.046 217.898 197.367C215.212 195.778 212.175 194.876 209.057 194.742C205.894 194.653 202.772 195.474 200.062 197.108C198.34 198.102 197.234 199.152 196.744 200.258C196.498 200.773 196.39 201.342 196.429 201.912C196.468 202.481 196.654 203.03 196.968 203.506C197.816 204.754 198.961 205.772 200.3 206.467C201.19 206.976 202.127 207.396 203.1 207.72C204.007 208.034 204.946 208.245 205.9 208.35C206.002 208.358 206.101 208.384 206.194 208.427C206.243 208.427 206.243 208.518 206.194 208.609L205.27 209.904C205.232 209.954 205.187 209.999 205.137 210.037C205.001 210.084 204.853 210.084 204.717 210.037C203.563 209.891 202.427 209.624 201.329 209.239C200.181 208.858 199.074 208.363 198.025 207.762C195.855 206.6 194.357 205.235 193.524 203.8ZM208.119 204.409C209.084 204.531 210.064 204.348 210.919 203.884L214.58 201.784C214.146 201.049 213.506 200.457 212.739 200.083C211.57 199.398 210.243 199.029 208.889 199.012C207.54 198.989 206.21 199.337 205.046 200.02C204.024 200.608 203.527 201.189 203.555 201.763C203.555 202.337 204.129 202.932 205.2 203.548C206.098 204.046 207.094 204.342 208.119 204.416V204.409Z" fill="white"/>
<path d="M255.082 175.031C255.37 175.179 255.689 175.257 256.013 175.257C256.337 175.257 256.656 175.179 256.944 175.031C257.055 174.992 257.151 174.92 257.22 174.824C257.288 174.728 257.324 174.613 257.324 174.495C257.324 174.378 257.288 174.263 257.22 174.167C257.151 174.071 257.055 173.999 256.944 173.96C256.654 173.817 256.336 173.742 256.013 173.742C255.69 173.742 255.371 173.817 255.082 173.96C254.971 173.999 254.874 174.071 254.806 174.167C254.738 174.263 254.701 174.378 254.701 174.495C254.701 174.613 254.738 174.728 254.806 174.824C254.874 174.92 254.971 174.992 255.082 175.031Z" fill="#4A4D58"/>
<path d="M258.05 183.458C258.626 183.751 259.263 183.904 259.909 183.904C260.555 183.904 261.192 183.751 261.767 183.458C262.796 182.87 262.796 181.904 261.767 181.316C261.192 181.023 260.555 180.87 259.909 180.87C259.263 180.87 258.626 181.023 258.05 181.316C257 181.904 257 182.87 258.05 183.458Z" fill="#4A4D58"/>
<path d="M255.432 179.727C256.132 179.328 256.083 178.67 255.348 178.25L243.126 171.187C242.733 170.977 242.296 170.863 241.85 170.856C241.405 170.849 240.964 170.948 240.564 171.145C239.864 171.537 239.92 172.202 240.648 172.622L252.87 179.678C253.264 179.886 253.7 179.998 254.145 180.007C254.59 180.015 255.031 179.92 255.432 179.727Z" fill="#4A4D58"/>
<path d="M96.9658 90.7081C97.0045 89.9564 97.2207 89.2244 97.5966 88.5723C97.9726 87.9202 98.4977 87.3663 99.1288 86.9561L209.89 23.0111C210.561 22.6694 211.303 22.4912 212.056 22.4912C212.809 22.4912 213.552 22.6694 214.223 23.0111L216.659 24.4111C217.289 24.8206 217.814 25.3734 218.189 26.0242C218.565 26.6751 218.782 27.4056 218.822 28.1561V113.066C218.779 113.817 218.561 114.547 218.185 115.199C217.81 115.85 217.287 116.405 216.659 116.818L105.898 180.763C105.227 181.102 104.486 181.278 103.735 181.278C102.983 181.278 102.243 181.102 101.572 180.763L99.1288 179.363C98.5008 178.95 97.9781 178.395 97.6025 177.744C97.2269 177.092 97.0089 176.362 96.9658 175.611V90.7081Z" fill="#FEED01"/>
<path opacity="0.4" d="M97.5957 88.5731L103.742 92.1151L218.192 26.0351C217.827 25.3764 217.302 24.8203 216.666 24.4181L214.216 23.0181C213.546 22.6764 212.805 22.4983 212.053 22.4983C211.301 22.4983 210.56 22.6764 209.89 23.0181L99.1357 86.9561C98.4901 87.3516 97.9592 87.909 97.5957 88.5731Z" fill="white"/>
<path opacity="0.1" d="M96.9658 90.7016V175.598C97.0058 176.35 97.2233 177.082 97.6005 177.734C97.9776 178.386 98.5037 178.94 99.1358 179.35L101.572 180.75C101.76 180.859 101.96 180.948 102.167 181.016C102.456 181.111 102.754 181.179 103.056 181.219C103.625 181.292 104.202 181.271 104.764 181.156C104.906 181.127 105.046 181.089 105.184 181.044C105.273 181.02 105.36 180.987 105.443 180.946C105.279 181.016 105.103 181.052 104.925 181.052C104.747 181.052 104.571 181.016 104.407 180.946C104.18 180.794 103.998 180.584 103.881 180.337C103.764 180.091 103.716 179.817 103.742 179.546V94.6006C103.72 94.2155 103.817 93.8331 104.018 93.5042C104.219 93.1752 104.516 92.9155 104.869 92.7596L103.742 92.1016L97.5958 88.5596C97.2079 89.2087 96.9911 89.9457 96.9658 90.7016Z" fill="#11183C"/>
<path opacity="0.2" d="M103.742 92.1155L155.038 111.282C156.812 111.941 158.758 111.978 160.555 111.385C162.353 110.792 163.895 109.605 164.929 108.02L173.168 95.4195L218.598 25.8115L174.806 95.8745L218.822 113.102C218.777 113.87 218.536 114.615 218.122 115.265L174.687 96.0705L165.111 111.401C164.049 113.102 162.408 114.363 160.491 114.952C158.573 115.541 156.508 115.418 154.674 114.607L147.863 111.597L104.4 180.939C104.173 180.787 103.991 180.577 103.874 180.33C103.757 180.084 103.709 179.81 103.735 179.539V178.139L147.646 111.541L103.742 92.1155Z" fill="#11183C"/>
<path d="M116.433 72.2911L108.859 67.9301L108.789 67.8881C105.429 65.9911 100.823 66.2781 95.7199 69.2181C85.4509 75.1471 77.1279 89.5671 77.1279 101.418C77.1279 107.333 79.2279 111.498 82.5529 113.444L89.4409 117.371L91.0859 114.62C92.9599 114.194 94.7584 113.486 96.4199 112.52C106.689 106.591 115.012 92.1711 115.012 80.3201C115.011 78.7204 114.816 77.1267 114.431 75.5741L116.433 72.2911Z" fill="#696F8C"/>
<path d="M102.902 73.3551C92.6257 79.2841 84.3027 93.7041 84.3027 105.555C84.3027 117.406 92.6257 122.222 102.895 116.293C113.164 110.364 121.494 95.9371 121.494 84.0931C121.494 72.2491 113.171 67.4191 102.902 73.3551Z" fill="#7E8295"/>
<path d="M97.1201 96.2385C97.0539 96.17 97.0059 96.0862 96.9802 95.9945C96.9546 95.9029 96.9521 95.8063 96.9731 95.7135C97.0083 95.4609 97.1044 95.2207 97.2531 95.0135L103 86.4805C103.147 86.2775 103.287 86.0745 103.441 85.8785C103.569 85.6953 103.734 85.5404 103.924 85.4235L106.024 84.2335C106.094 84.1817 106.177 84.1517 106.264 84.1471C106.35 84.1425 106.436 84.1636 106.511 84.2077C106.586 84.2517 106.646 84.3169 106.684 84.3949C106.722 84.473 106.736 84.5605 106.724 84.6465V104.344C106.713 104.593 106.638 104.834 106.507 105.044C106.391 105.263 106.22 105.446 106.01 105.576L103.868 106.808C103.797 106.862 103.712 106.896 103.623 106.904C103.534 106.913 103.444 106.897 103.364 106.857C103.291 106.806 103.233 106.737 103.196 106.655C103.159 106.574 103.144 106.484 103.154 106.395V91.3385L99.4091 96.8895C99.2853 97.0925 99.1054 97.2554 98.891 97.3585C98.8135 97.3975 98.7266 97.4143 98.6401 97.4068C98.5536 97.3994 98.4708 97.3681 98.4011 97.3165L97.1201 96.2385Z" fill="white"/>
<path d="M268.627 164.131V162.878H268.935C269.399 162.027 270.106 161.333 270.965 160.883C272.716 159.996 274.651 159.534 276.614 159.534C278.577 159.534 280.512 159.996 282.263 160.883C283.122 161.333 283.829 162.027 284.293 162.878H284.601V164.089C284.601 165.286 283.845 166.49 282.263 167.407C280.516 168.287 278.587 168.745 276.631 168.744C274.675 168.742 272.746 168.282 271 167.4C269.397 166.504 268.62 165.3 268.627 164.131Z" fill="#4A4D58"/>
<path d="M282.263 159.616C280.513 158.726 278.577 158.262 276.614 158.262C274.651 158.262 272.715 158.726 270.965 159.616C267.843 161.415 267.843 164.334 270.965 166.14C272.716 167.027 274.651 167.489 276.614 167.489C278.577 167.489 280.512 167.027 282.263 166.14C285.385 164.334 285.385 161.415 282.263 159.616Z" fill="#7E8295"/>
<path d="M278.7 114.9V162.346C278.683 162.527 278.619 162.7 278.513 162.848C278.407 162.996 278.264 163.113 278.098 163.186C277.647 163.417 277.148 163.538 276.642 163.538C276.136 163.538 275.637 163.417 275.186 163.186C275.02 163.113 274.877 162.996 274.771 162.848C274.665 162.7 274.601 162.527 274.584 162.346V114.9H278.7Z" fill="#696F8C"/>
<path d="M274.556 120.066V121.55L278.672 123.923V122.446L274.556 120.066Z" fill="#4A4D58"/>
<path d="M300.813 102.335L300.463 103.035L296.697 110.581L294.912 114.2L288.864 126.331L288.199 127.668H288.08C287.837 127.676 287.595 127.621 287.38 127.507L260.423 111.925C260.222 111.798 260.054 111.625 259.932 111.421C259.811 111.216 259.739 110.986 259.723 110.749V100.333C259.723 95.139 263.146 88.951 267.367 86.515C269.369 85.36 271.182 85.269 272.547 86.032L300.813 102.335Z" fill="#7E8295"/>
<path d="M295.724 102.888C294.016 103.518 287.821 108.635 287.821 116.699C287.821 123.475 287.821 126.989 287.821 127.626H288.073H288.192L288.857 126.289L294.912 114.2L296.697 110.616L297.11 109.797L295.724 102.888Z" fill="#696F8C"/>
<path d="M303.032 119.1C302.965 119.214 302.868 119.308 302.752 119.373L302.682 119.415L288.759 127.5C288.586 127.592 288.395 127.644 288.199 127.654H288.08V116.699C288.115 114.717 288.526 112.759 289.291 110.931L289.991 111.323L294.926 114.172L302.584 118.603L302.976 118.827C303.018 118.856 303.048 118.901 303.058 118.952C303.069 119.003 303.059 119.056 303.032 119.1Z" fill="#696F8C"/>
<path d="M300.813 102.335C299.462 101.635 297.677 101.754 295.724 102.888C293.327 104.394 291.39 106.53 290.124 109.062C289.803 109.669 289.516 110.293 289.263 110.931C288.498 112.76 288.087 114.717 288.052 116.699V127.647H288.171C288.367 127.638 288.558 127.585 288.731 127.493L302.647 119.45L302.717 119.408C302.827 119.336 302.922 119.243 302.997 119.135C303.193 118.89 303.306 118.588 303.319 118.274V107.9C303.354 105.1 302.374 103.161 300.813 102.335ZM302.367 118.715L289.067 126.415C288.955 126.478 288.864 126.415 288.864 126.296V116.699C288.9 114.854 289.277 113.031 289.977 111.323C289.985 111.286 289.999 111.25 290.019 111.218C290.287 110.542 290.596 109.883 290.943 109.244C292.122 106.919 293.91 104.957 296.116 103.567C296.971 103.025 297.954 102.718 298.965 102.678C299.487 102.672 300.002 102.797 300.463 103.042C301.793 103.742 302.563 105.471 302.563 107.872V118.372C302.56 118.441 302.54 118.507 302.506 118.567C302.472 118.626 302.424 118.677 302.367 118.715Z" fill="#7E8295"/>
<path d="M302.57 107.9V118.631L289.97 111.351C289.978 111.314 289.992 111.279 290.012 111.246C291.363 107.872 293.638 105.009 296.109 103.595C296.964 103.053 297.947 102.746 298.958 102.706C301.191 102.678 302.57 104.673 302.57 107.9Z" fill="#4A4D58"/>
<path d="M279.512 113.22L280.625 112.576C280.863 112.469 281.124 112.426 281.383 112.452C281.643 112.477 281.891 112.571 282.102 112.723C282.714 113.122 283.222 113.66 283.587 114.292C283.952 114.925 284.163 115.634 284.202 116.363C284.228 116.619 284.185 116.877 284.08 117.112C283.974 117.347 283.809 117.549 283.6 117.7L282.571 118.295L282.382 117.98C282.171 117.934 281.968 117.856 281.78 117.749C281.169 117.35 280.66 116.812 280.295 116.18C279.931 115.548 279.72 114.838 279.68 114.109C279.682 113.928 279.703 113.747 279.743 113.57L279.512 113.22Z" fill="#E0E0E0"/>
<path d="M281.045 113.34C281.656 113.738 282.165 114.274 282.529 114.905C282.894 115.536 283.105 116.245 283.145 116.973C283.145 118.317 282.2 118.856 281.045 118.191C280.434 117.791 279.926 117.253 279.561 116.621C279.196 115.989 278.985 115.279 278.945 114.551C278.938 113.214 279.883 112.668 281.045 113.34Z" fill="white"/>
<path d="M281.045 116.342C280.884 116.342 280.729 116.278 280.614 116.164C280.5 116.05 280.436 115.895 280.436 115.733V98.5065C280.436 98.3449 280.5 98.19 280.614 98.0758C280.729 97.9616 280.884 97.8975 281.045 97.8975C281.207 97.8975 281.361 97.9616 281.476 98.0758C281.59 98.19 281.654 98.3449 281.654 98.5065V115.733C281.654 115.895 281.59 116.05 281.476 116.164C281.361 116.278 281.207 116.342 281.045 116.342Z" fill="#EBEBEB"/>
<path d="M280.436 100.207L274.332 96.6855L276.243 100.361L274.332 101.831L280.436 105.359V100.207Z" fill="#FEED01"/>
<path d="M299.392 111.4C299.388 111.307 299.361 111.215 299.315 111.134C299.269 111.052 299.204 110.983 299.126 110.931L285.322 102.965C285.238 102.924 285.146 102.902 285.052 102.902C284.959 102.902 284.867 102.924 284.783 102.965L284.475 103.14C284.397 103.192 284.332 103.261 284.286 103.343C284.24 103.424 284.213 103.516 284.209 103.609V114.2C284.215 114.294 284.242 114.384 284.288 114.465C284.334 114.547 284.398 114.616 284.475 114.669L298.3 122.6C298.384 122.642 298.476 122.663 298.569 122.663C298.663 122.663 298.755 122.642 298.839 122.6L299.147 122.425C299.225 122.374 299.29 122.304 299.336 122.223C299.382 122.141 299.409 122.05 299.413 121.956L299.392 111.4Z" fill="#F0F0F0"/>
<path d="M299.315 111.12L298.552 111.561L284.3 103.329C284.346 103.247 284.411 103.178 284.489 103.126L284.797 102.951C284.88 102.906 284.972 102.883 285.066 102.883C285.16 102.883 285.253 102.906 285.336 102.951L299.14 110.917C299.213 110.97 299.273 111.04 299.315 111.12Z" fill="white"/>
<path d="M299.392 111.4V121.977C299.388 122.071 299.361 122.162 299.315 122.243C299.269 122.325 299.204 122.394 299.126 122.446L298.818 122.621L298.748 122.656H298.636C298.564 122.67 298.491 122.67 298.419 122.656H298.37H298.335C298.356 122.666 298.378 122.672 298.401 122.672C298.425 122.672 298.447 122.666 298.468 122.656C298.496 122.637 298.519 122.611 298.534 122.58C298.549 122.549 298.555 122.515 298.552 122.481V111.869C298.554 111.821 298.541 111.774 298.514 111.734C298.488 111.693 298.45 111.662 298.405 111.645L298.552 111.561L299.315 111.12C299.365 111.205 299.392 111.302 299.392 111.4Z" fill="#E0E0E0"/>
<path d="M298.552 111.561L292.154 113.948C291.933 114.029 291.691 114.034 291.467 113.96C291.243 113.886 291.051 113.739 290.922 113.542L289.9 111.974L284.237 103.294L289.69 112.03L284.209 114.2C284.214 114.294 284.243 114.386 284.293 114.466L289.711 112.072L290.901 113.983C291.033 114.196 291.238 114.353 291.477 114.427C291.717 114.5 291.974 114.484 292.203 114.382L293.05 114.011L298.468 122.6C298.496 122.581 298.519 122.555 298.534 122.524C298.549 122.493 298.555 122.459 298.552 122.425V122.25L293.078 113.948L298.552 111.561Z" fill="#E0E0E0"/>
<path d="M310.074 113.094L307.274 116.293L307.218 116.363L304.6 119.394C304.444 119.565 304.265 119.714 304.068 119.835L289.368 128.305C289.319 128.334 289.264 128.353 289.207 128.361H289.2L294.492 122.25L294.8 121.9C298.703 117.642 303.179 113.948 308.1 110.924C310.025 109.811 311.257 109.412 311.726 109.643C312.3 109.958 311.768 111.141 310.074 113.094Z" fill="#696F8C"/>
</svg>
