<svg width="36" height="32" viewBox="0 0 36 32" fill="none" xmlns="http://www.w3.org/2000/svg">
<rect width="36" height="32" rx="16" fill="#F7F7F7"/>
<path d="M14.755 21.2413H21.2448V10.7588H14.755V21.2413Z" fill="#FF5F00"/>
<path d="M15.1671 15.9999C15.1671 13.8732 16.2749 11.9792 18 10.7586C16.7383 9.86584 15.1465 9.33325 13.4163 9.33325C9.32032 9.33325 6 12.3181 6 15.9999C6 19.6817 9.32032 22.6665 13.4163 22.6665C15.1465 22.6665 16.7383 22.1339 18 21.2412C16.2749 20.0204 15.1671 18.1265 15.1671 15.9999Z" fill="#EB001B"/>
<path fill-rule="evenodd" clip-rule="evenodd" d="M22.5837 22.6665C26.6795 22.6665 30 19.6817 30 15.9999C30 12.3181 26.6795 9.33325 22.5837 9.33325C20.8535 9.33325 19.2615 9.86584 18 10.7586C19.7251 11.9794 20.8329 13.8734 20.8329 15.9999C20.8329 18.1265 19.7251 20.0206 18 21.2412C19.2615 22.1339 20.8535 22.6665 22.5837 22.6665ZM29.7684 20.131V19.8723H29.6932L29.6069 20.0502L29.5204 19.8723H29.4452V20.131H29.4981V19.9358L29.5793 20.1041H29.6343L29.7155 19.9354V20.131H29.7684ZM29.2923 20.131V19.9164H29.3887V19.8727H29.1435V19.9164H29.2398V20.131H29.2923Z" fill="#F79E1B"/>
</svg>
