<svg width="40" height="40" viewBox="0 0 40 40" fill="none" xmlns="http://www.w3.org/2000/svg">
<rect width="40" height="40" rx="20" fill="black"/>
<path d="M23.3335 23.3334V16.6667M23.3335 16.6667H16.6669M23.3335 16.6667L16.6669 23.3333M15.3333 30H24.6667C26.5335 30 27.4669 30 28.18 29.6367C28.8072 29.3171 29.3171 28.8072 29.6367 28.18C30 27.4669 30 26.5335 30 24.6667V15.3333C30 13.4665 30 12.5331 29.6367 11.82C29.3171 11.1928 28.8072 10.6829 28.18 10.3633C27.4669 10 26.5335 10 24.6667 10H15.3333C13.4665 10 12.5331 10 11.82 10.3633C11.1928 10.6829 10.6829 11.1928 10.3633 11.82C10 12.5331 10 13.4665 10 15.3333V24.6667C10 26.5335 10 27.4669 10.3633 28.18C10.6829 28.8072 11.1928 29.3171 11.82 29.6367C12.5331 30 13.4665 30 15.3333 30Z" stroke="white" stroke-width="1.6" stroke-linecap="round" stroke-linejoin="round"/>
</svg>
