<svg width="36" height="32" viewBox="0 0 36 32" fill="none" xmlns="http://www.w3.org/2000/svg">
<rect width="36" height="32" rx="16" fill="#F7F7F7"/>
<path fill-rule="evenodd" clip-rule="evenodd" d="M18.0934 14.5876C18.0934 12.9087 19.8542 12 21.8246 12C23.0865 12 23.9813 12.3435 23.9813 12.3435L23.5834 13.9797C23.5834 13.9797 22.761 13.6093 21.753 13.6093C20.8597 13.6093 20.4291 13.9588 20.4291 14.2779C20.4291 14.6362 20.9286 14.8721 21.529 15.1555C22.4328 15.5822 23.5649 16.1167 23.5649 17.3391C23.5649 19.0467 21.8698 20 19.7156 20C18.2621 20 17.1674 19.5697 17.1674 19.5697L17.574 17.8755C17.574 17.8755 18.5243 18.3849 19.7958 18.3849C20.6917 18.3849 21.2163 18.0204 21.2163 17.6131C21.2163 17.2119 20.679 16.9543 20.0501 16.6527C19.1629 16.2272 18.0934 15.7143 18.0934 14.5876ZM27.7873 12.1235C27.2447 12.1235 26.9573 12.3819 26.7463 12.8336L23.45 19.8726H25.8095L26.266 18.6995H29.1405L29.4181 19.8726H31.5L29.6838 12.1235H27.7873ZM28.0941 14.2171L28.7935 17.1249H26.9198L28.0941 14.2171ZM15.2384 12.1235L13.3875 19.8726H15.6374L17.4819 12.1235H15.2384ZM3.75 12.3705L3.79771 12.1235H7.55923C8.10242 12.1235 8.54618 12.4151 8.63379 12.9262L9.58908 17.3922L11.9301 12.1235H14.2896L10.6463 19.8726H8.28139L6.51719 13.8215C6.3553 13.2632 6.28682 13.0835 5.32552 12.7747C4.57893 12.5055 3.75 12.3705 3.75 12.3705Z" fill="#1434CB"/>
</svg>
