<svg width="375" height="226" viewBox="0 0 375 226" fill="none" xmlns="http://www.w3.org/2000/svg">
<path d="M203.965 197.417C204.944 202.597 201.538 207.642 196.286 208.099C186.943 208.913 177.531 208.346 168.353 206.416C163.194 205.331 160.418 199.914 162.013 194.889C163.607 189.864 168.971 187.146 174.156 188.102C180.276 189.231 186.513 189.606 192.725 189.221C197.987 188.895 202.985 192.237 203.965 197.417Z" fill="#FF58A1"/>
<g filter="url(#filter0_f_33_2204)">
<path d="M191.604 198.838C191.826 204.105 187.727 208.605 182.463 208.299C179.667 208.136 176.878 207.851 174.107 207.443C168.891 206.676 165.788 201.439 167.073 196.326C168.357 191.212 173.544 188.172 178.777 188.809C179.738 188.926 180.702 189.024 181.666 189.104C186.92 189.542 191.383 193.57 191.604 198.838Z" fill="#FF58A1"/>
</g>
<g filter="url(#filter1_f_33_2204)">
<path d="M239.087 182.074C242.222 186.313 241.348 192.336 236.817 195.032C225.221 201.934 212.289 206.299 198.882 207.837C193.644 208.438 189.299 204.176 189.224 198.904C189.148 193.633 193.379 189.36 198.6 188.628C208.018 187.308 217.109 184.24 225.401 179.582C229.998 177 235.952 177.835 239.087 182.074Z" fill="#745DE8"/>
</g>
<path d="M245.483 176.85C249.01 180.768 248.719 186.848 244.468 189.966C236.586 195.749 227.848 200.298 218.551 203.438C209.253 206.579 199.546 208.261 189.772 208.443C184.501 208.541 180.583 203.883 181.012 198.628C181.44 193.374 186.059 189.524 191.326 189.295C198.499 188.982 205.608 187.659 212.44 185.351C219.273 183.043 225.728 179.784 231.621 175.683C235.948 172.671 241.955 172.932 245.483 176.85Z" fill="#745DE8"/>
<g filter="url(#filter2_f_33_2204)">
<path d="M269.249 140.923C274.235 142.636 276.931 148.093 274.729 152.883C269.959 163.255 263.366 172.689 255.266 180.733C251.525 184.448 245.474 183.792 242.151 179.699C238.828 175.606 239.504 169.632 243.15 165.824C248.581 160.154 253.106 153.68 256.564 146.631C258.885 141.897 264.263 139.209 269.249 140.923Z" fill="#0091C0"/>
</g>
<path d="M273.273 123.475C278.505 124.118 282.274 128.898 281.112 134.04C278.579 145.25 274.036 155.937 267.678 165.573C261.319 175.209 253.281 183.59 243.971 190.328C239.7 193.42 233.824 191.835 231.174 187.277C228.525 182.719 230.117 176.921 234.309 173.724C241.109 168.539 247.008 162.234 251.742 155.059C256.476 147.883 259.953 139.98 262.045 131.689C263.336 126.577 268.04 122.833 273.273 123.475Z" fill="#0091C0"/>
<g filter="url(#filter3_f_33_2204)">
<path d="M182.68 27.2514C182.353 21.9894 186.362 17.4091 191.63 17.6096C203.572 18.064 215.351 20.7581 226.347 25.5814C240.264 31.6863 252.522 41.0257 262.103 52.8229C271.683 64.6201 278.308 78.5341 281.427 93.4078C283.891 105.159 284.111 117.241 282.105 129.022C281.22 134.219 275.915 137.203 270.832 135.803C265.749 134.404 262.826 129.149 263.581 123.932C264.857 115.107 264.582 106.101 262.742 97.3262C260.246 85.4273 254.946 74.2961 247.282 64.8583C239.618 55.4206 229.811 47.9491 218.678 43.0651C210.467 39.4635 201.71 37.3458 192.811 36.7841C187.549 36.452 183.006 32.5133 182.68 27.2514Z" fill="#1DC198"/>
</g>
<path d="M153.608 34.2707C151.497 29.4395 153.693 23.7625 158.711 22.1449C173.262 17.4539 188.775 16.3124 203.941 18.881C222.254 21.9827 239.265 30.3598 252.888 42.9854C266.511 55.6111 276.155 71.9369 280.638 89.962C284.35 104.889 284.389 120.444 280.816 135.31C279.584 140.436 274.09 143.056 269.112 141.318C264.135 139.58 261.572 134.141 262.676 128.986C265.1 117.661 264.925 105.89 262.11 94.5696C258.524 80.1495 250.809 67.0889 239.91 56.9884C229.012 46.8878 215.403 40.1862 200.753 37.7048C189.252 35.7569 177.501 36.4761 166.393 39.7529C161.336 41.2446 155.718 39.1019 153.608 34.2707Z" fill="#1DC198"/>
<g filter="url(#filter4_f_33_2204)">
<path d="M161.448 194.707C159.818 199.721 154.407 202.509 149.581 200.387C132.716 192.973 118.289 180.803 108.126 165.275C96.2138 147.073 90.8754 125.349 92.9947 103.7C95.114 82.0503 104.564 61.7739 119.78 46.2281C132.761 32.9654 149.274 23.8244 167.257 19.8214C172.403 18.6759 177.171 22.4598 177.797 27.6945C178.423 32.9293 174.663 37.6214 169.547 38.8952C155.883 42.2976 143.36 49.4307 133.424 59.5825C121.251 72.0192 113.691 88.2402 111.996 105.56C110.3 122.879 114.571 140.259 124.101 154.82C131.88 166.706 142.782 176.132 155.527 182.12C160.299 184.361 163.077 189.693 161.448 194.707Z" fill="#FFC457"/>
</g>
<path d="M177.433 198.261C176.785 203.493 172 207.257 166.859 206.089C146.967 201.572 128.952 190.774 115.558 175.167C100.084 157.134 91.8904 133.978 92.5809 110.226C93.2713 86.4742 102.796 63.8334 119.292 46.7303C133.569 31.9274 152.181 22.194 172.302 18.8399C177.503 17.9731 182.06 22.0081 182.403 27.269C182.747 32.5299 178.74 37.0127 173.563 38.0094C158.188 40.9692 144.01 48.6041 133.033 59.9842C119.836 73.6667 112.217 91.7794 111.665 110.781C111.112 129.783 117.667 148.307 130.047 162.733C140.343 174.732 154.054 183.178 169.231 187.025C174.341 188.321 178.081 193.029 177.433 198.261Z" fill="#FFC457"/>
<path d="M180.132 208.134C174.757 207.69 169.436 206.791 164.224 205.451C159.118 204.138 156.586 198.603 158.402 193.654C160.218 188.704 165.697 186.228 170.834 187.413C174.408 188.237 178.041 188.804 181.705 189.107L186.235 189.499C186.896 189.556 186.97 190.493 186.327 190.653C186.285 190.664 186.245 190.679 186.207 190.698L185.564 191.019C184.878 191.362 184.252 191.813 183.71 192.355L183.661 192.405C183.086 192.979 182.608 193.643 182.244 194.37L181.925 195.008L181.252 196.356C181.124 196.611 181.058 196.892 181.058 197.178L181.058 197.611L180.919 198.621L180.919 199.474C180.919 200.613 181.112 201.744 181.491 202.818L181.959 203.754C182.225 204.286 182.547 204.788 182.918 205.252L183.996 206.6C184.061 206.681 184.143 206.747 184.237 206.793C184.908 207.123 184.673 208.134 183.925 208.134L180.132 208.134Z" fill="#FF58A1"/>
<circle cx="187.5" cy="78" r="3.2" stroke="#696F8C" stroke-width="1.6"/>
<path d="M195.688 76.9343C196.076 77.4056 196.27 77.6412 196.27 78C196.27 78.3588 196.076 78.5944 195.688 79.0657C194.268 80.7899 191.136 84 187.5 84C183.864 84 180.732 80.7899 179.312 79.0657C178.924 78.5944 178.73 78.3588 178.73 78C178.73 77.6412 178.924 77.4056 179.312 76.9343C180.732 75.2101 183.864 72 187.5 72C191.136 72 194.268 75.2101 195.688 76.9343Z" stroke="#696F8C" stroke-width="1.6"/>
<path d="M144.801 105V93.8H146.753L150.833 100.424L149.713 100.408L153.825 93.8H155.681V105H153.649V100.808C153.649 99.8373 153.67 98.968 153.713 98.2C153.766 97.4213 153.852 96.6533 153.969 95.896L154.225 96.568L150.753 101.944H149.681L146.305 96.632L146.529 95.896C146.646 96.6107 146.726 97.3467 146.769 98.104C146.822 98.8613 146.849 99.7627 146.849 100.808V105H144.801ZM159.651 108.68L161.427 104.552L161.443 105.88L157.283 96.568H159.539L161.875 102.12C161.95 102.259 162.024 102.445 162.099 102.68C162.174 102.904 162.238 103.123 162.291 103.336L161.891 103.48C161.966 103.277 162.04 103.059 162.115 102.824C162.2 102.589 162.286 102.355 162.371 102.12L164.355 96.568H166.627L163.123 105L161.699 108.68H159.651ZM172.895 105V93.8H177.663C178.399 93.8 179.017 93.9067 179.519 94.12C180.031 94.3333 180.415 94.6533 180.671 95.08C180.927 95.496 181.055 96.0027 181.055 96.6C181.055 97.2187 180.889 97.7413 180.559 98.168C180.239 98.5947 179.78 98.888 179.183 99.048V98.728C179.673 98.8347 180.105 99.0267 180.479 99.304C180.852 99.5707 181.14 99.9067 181.343 100.312C181.545 100.707 181.647 101.16 181.647 101.672C181.647 102.216 181.556 102.696 181.375 103.112C181.204 103.528 180.948 103.875 180.607 104.152C180.276 104.429 179.876 104.643 179.407 104.792C178.948 104.931 178.425 105 177.839 105H172.895ZM174.911 103.128H177.727C178.313 103.128 178.767 103 179.087 102.744C179.417 102.477 179.583 102.099 179.583 101.608C179.583 101.309 179.503 101.053 179.343 100.84C179.183 100.627 178.959 100.467 178.671 100.36C178.383 100.243 178.041 100.184 177.647 100.184H174.911V103.128ZM174.911 98.392H177.487C177.785 98.392 178.052 98.3333 178.287 98.216C178.521 98.0987 178.703 97.9387 178.831 97.736C178.959 97.5333 179.023 97.2987 179.023 97.032C179.023 96.5947 178.873 96.2587 178.575 96.024C178.287 95.7893 177.865 95.672 177.311 95.672H174.911V98.392ZM188.359 105V99.608C188.359 99.1493 188.204 98.792 187.895 98.536C187.596 98.2693 187.207 98.136 186.727 98.136C186.279 98.136 185.873 98.2267 185.511 98.408C185.148 98.5787 184.812 98.856 184.503 99.24L183.287 98.024C183.788 97.4907 184.343 97.0853 184.951 96.808C185.559 96.5307 186.215 96.392 186.919 96.392C187.591 96.392 188.167 96.4987 188.647 96.712C189.137 96.9253 189.516 97.2453 189.783 97.672C190.049 98.088 190.183 98.6 190.183 99.208V105H188.359ZM185.959 105.16C185.415 105.16 184.929 105.053 184.503 104.84C184.076 104.627 183.735 104.333 183.479 103.96C183.233 103.576 183.111 103.128 183.111 102.616C183.111 102.168 183.191 101.779 183.351 101.448C183.511 101.107 183.745 100.824 184.055 100.6C184.375 100.376 184.769 100.211 185.239 100.104C185.719 99.9867 186.268 99.928 186.887 99.928H189.303L189.159 101.336H186.775C186.487 101.336 186.231 101.363 186.007 101.416C185.783 101.469 185.591 101.549 185.431 101.656C185.271 101.763 185.153 101.891 185.079 102.04C185.004 102.179 184.967 102.349 184.967 102.552C184.967 102.765 185.02 102.952 185.127 103.112C185.233 103.261 185.377 103.379 185.559 103.464C185.74 103.549 185.953 103.592 186.199 103.592C186.551 103.592 186.881 103.533 187.191 103.416C187.511 103.299 187.793 103.133 188.039 102.92C188.284 102.707 188.476 102.467 188.615 102.2L189.015 103.288C188.791 103.661 188.513 103.987 188.183 104.264C187.863 104.541 187.511 104.76 187.127 104.92C186.753 105.08 186.364 105.16 185.959 105.16ZM192.277 105V93.16H194.229V105H192.277ZM201.218 105V99.608C201.218 99.1493 201.063 98.792 200.754 98.536C200.455 98.2693 200.066 98.136 199.586 98.136C199.138 98.136 198.733 98.2267 198.37 98.408C198.007 98.5787 197.671 98.856 197.362 99.24L196.146 98.024C196.647 97.4907 197.202 97.0853 197.81 96.808C198.418 96.5307 199.074 96.392 199.778 96.392C200.45 96.392 201.026 96.4987 201.506 96.712C201.997 96.9253 202.375 97.2453 202.642 97.672C202.909 98.088 203.042 98.6 203.042 99.208V105H201.218ZM198.818 105.16C198.274 105.16 197.789 105.053 197.362 104.84C196.935 104.627 196.594 104.333 196.338 103.96C196.093 103.576 195.97 103.128 195.97 102.616C195.97 102.168 196.05 101.779 196.21 101.448C196.37 101.107 196.605 100.824 196.914 100.6C197.234 100.376 197.629 100.211 198.098 100.104C198.578 99.9867 199.127 99.928 199.746 99.928H202.162L202.018 101.336H199.634C199.346 101.336 199.09 101.363 198.866 101.416C198.642 101.469 198.45 101.549 198.29 101.656C198.13 101.763 198.013 101.891 197.938 102.04C197.863 102.179 197.826 102.349 197.826 102.552C197.826 102.765 197.879 102.952 197.986 103.112C198.093 103.261 198.237 103.379 198.418 103.464C198.599 103.549 198.813 103.592 199.058 103.592C199.41 103.592 199.741 103.533 200.05 103.416C200.37 103.299 200.653 103.133 200.898 102.92C201.143 102.707 201.335 102.467 201.474 102.2L201.874 103.288C201.65 103.661 201.373 103.987 201.042 104.264C200.722 104.541 200.37 104.76 199.986 104.92C199.613 105.08 199.223 105.16 198.818 105.16ZM205.121 105V96.568H207.025L207.057 98.296L206.689 98.488C206.806 98.1147 207.014 97.7733 207.313 97.464C207.622 97.144 207.99 96.888 208.417 96.696C208.843 96.4933 209.286 96.392 209.745 96.392C210.385 96.392 210.918 96.52 211.345 96.776C211.782 97.032 212.107 97.416 212.321 97.928C212.534 98.44 212.641 99.08 212.641 99.848V105H210.689V99.992C210.689 99.5547 210.63 99.1973 210.513 98.92C210.395 98.632 210.214 98.424 209.969 98.296C209.723 98.1573 209.425 98.0987 209.073 98.12C208.785 98.12 208.518 98.168 208.273 98.264C208.027 98.3493 207.814 98.4773 207.633 98.648C207.462 98.808 207.323 99 207.217 99.224C207.121 99.4373 207.073 99.672 207.073 99.928V105H206.097C205.915 105 205.739 105 205.569 105C205.409 105 205.259 105 205.121 105ZM218.487 105.16C217.697 105.16 216.988 104.968 216.359 104.584C215.729 104.2 215.233 103.677 214.871 103.016C214.508 102.355 214.327 101.608 214.327 100.776C214.327 99.944 214.508 99.1973 214.871 98.536C215.233 97.8747 215.729 97.352 216.359 96.968C216.988 96.584 217.697 96.392 218.487 96.392C219.233 96.392 219.916 96.5413 220.535 96.84C221.164 97.128 221.644 97.5227 221.975 98.024L220.903 99.336C220.743 99.112 220.54 98.9093 220.295 98.728C220.049 98.5467 219.783 98.4027 219.495 98.296C219.217 98.1893 218.945 98.136 218.679 98.136C218.199 98.136 217.772 98.2533 217.399 98.488C217.036 98.712 216.748 99.0267 216.535 99.432C216.321 99.8267 216.215 100.275 216.215 100.776C216.215 101.277 216.321 101.725 216.535 102.12C216.759 102.515 217.057 102.829 217.431 103.064C217.804 103.299 218.22 103.416 218.679 103.416C218.967 103.416 219.239 103.373 219.495 103.288C219.751 103.192 219.996 103.059 220.231 102.888C220.476 102.717 220.7 102.504 220.903 102.248L221.975 103.56C221.623 104.029 221.127 104.413 220.487 104.712C219.847 105.011 219.18 105.16 218.487 105.16ZM227.432 105.16C226.547 105.16 225.763 104.979 225.08 104.616C224.408 104.243 223.88 103.736 223.496 103.096C223.123 102.445 222.936 101.699 222.936 100.856C222.936 100.195 223.043 99.592 223.256 99.048C223.469 98.504 223.768 98.0347 224.152 97.64C224.536 97.2347 224.989 96.9253 225.512 96.712C226.045 96.488 226.621 96.376 227.24 96.376C227.805 96.376 228.323 96.4827 228.792 96.696C229.272 96.9093 229.688 97.2027 230.04 97.576C230.392 97.9387 230.659 98.376 230.84 98.888C231.032 99.3893 231.123 99.9387 231.112 100.536L231.096 101.24H224.28L223.896 99.88H229.448L229.208 100.152V99.784C229.176 99.464 229.069 99.1813 228.888 98.936C228.707 98.68 228.472 98.4827 228.184 98.344C227.907 98.1947 227.597 98.12 227.256 98.12C226.733 98.12 226.291 98.2213 225.928 98.424C225.565 98.616 225.288 98.904 225.096 99.288C224.915 99.672 224.824 100.147 224.824 100.712C224.824 101.256 224.936 101.731 225.16 102.136C225.395 102.541 225.725 102.856 226.152 103.08C226.579 103.304 227.075 103.416 227.64 103.416C228.035 103.416 228.397 103.352 228.728 103.224C229.069 103.096 229.432 102.867 229.816 102.536L230.776 103.88C230.488 104.147 230.157 104.376 229.784 104.568C229.421 104.749 229.037 104.893 228.632 105C228.227 105.107 227.827 105.16 227.432 105.16Z" fill="#11183C"/>
<path d="M156.525 131.16C155.565 131.16 154.722 130.984 153.997 130.632C153.282 130.28 152.669 129.757 152.157 129.064L153.389 127.464C153.933 128.168 154.455 128.659 154.957 128.936C155.469 129.213 156.045 129.352 156.685 129.352C157.058 129.352 157.389 129.299 157.677 129.192C157.975 129.085 158.21 128.936 158.381 128.744C158.551 128.541 158.637 128.307 158.637 128.04C158.637 127.859 158.599 127.693 158.525 127.544C158.461 127.384 158.359 127.245 158.221 127.128C158.093 127 157.927 126.883 157.725 126.776C157.522 126.669 157.293 126.579 157.037 126.504C156.781 126.419 156.498 126.349 156.189 126.296C155.399 126.136 154.743 125.907 154.221 125.608C153.709 125.299 153.325 124.915 153.069 124.456C152.813 123.997 152.685 123.459 152.685 122.84C152.685 122.211 152.861 121.656 153.213 121.176C153.575 120.685 154.055 120.301 154.653 120.024C155.261 119.747 155.927 119.608 156.653 119.608C157.538 119.608 158.311 119.768 158.973 120.088C159.645 120.397 160.199 120.867 160.637 121.496L159.437 122.936C159.074 122.435 158.658 122.056 158.189 121.8C157.719 121.544 157.207 121.416 156.653 121.416C156.269 121.416 155.933 121.475 155.645 121.592C155.367 121.699 155.149 121.853 154.989 122.056C154.829 122.248 154.749 122.483 154.749 122.76C154.749 122.963 154.791 123.149 154.877 123.32C154.973 123.491 155.111 123.64 155.293 123.768C155.474 123.896 155.698 124.008 155.965 124.104C156.242 124.2 156.562 124.285 156.925 124.36C157.511 124.488 158.039 124.648 158.509 124.84C158.978 125.032 159.373 125.267 159.693 125.544C160.023 125.811 160.274 126.12 160.445 126.472C160.615 126.813 160.701 127.197 160.701 127.624C160.701 128.349 160.53 128.979 160.189 129.512C159.847 130.045 159.362 130.456 158.733 130.744C158.103 131.021 157.367 131.16 156.525 131.16ZM155.565 132.456L155.613 125.128L157.085 125.656L157.149 132.456H155.565ZM157.661 125.672L156.189 125.144L156.125 118.456H157.725L157.661 125.672ZM162.828 131L162.3 129.672L165.66 125.928C165.841 125.725 166.033 125.501 166.236 125.256C166.438 125 166.63 124.739 166.812 124.472C167.004 124.205 167.158 123.944 167.276 123.688C167.393 123.421 167.452 123.176 167.452 122.952C167.452 122.653 167.388 122.397 167.26 122.184C167.142 121.971 166.972 121.805 166.748 121.688C166.524 121.571 166.246 121.512 165.916 121.512C165.638 121.512 165.361 121.597 165.084 121.768C164.806 121.928 164.55 122.163 164.316 122.472C164.092 122.771 163.905 123.128 163.756 123.544L162.204 122.616C162.396 121.997 162.684 121.464 163.068 121.016C163.452 120.568 163.905 120.221 164.428 119.976C164.961 119.731 165.537 119.608 166.156 119.608C166.796 119.608 167.366 119.741 167.868 120.008C168.369 120.275 168.764 120.643 169.052 121.112C169.35 121.581 169.5 122.131 169.5 122.76C169.5 123.059 169.457 123.368 169.372 123.688C169.286 124.008 169.153 124.344 168.972 124.696C168.79 125.048 168.556 125.421 168.268 125.816C167.98 126.2 167.628 126.616 167.212 127.064L164.7 129.8L164.364 129.08H169.9V131H162.828ZM171.673 133.976L171.017 133.192C171.412 132.979 171.732 132.728 171.977 132.44C172.223 132.163 172.345 131.923 172.345 131.72C172.345 131.613 172.319 131.507 172.265 131.4C172.212 131.293 172.095 131.155 171.913 130.984C171.689 130.792 171.54 130.621 171.465 130.472C171.401 130.323 171.369 130.157 171.369 129.976C171.369 129.688 171.471 129.464 171.673 129.304C171.876 129.133 172.132 129.048 172.441 129.048C172.729 129.048 172.985 129.128 173.209 129.288C173.444 129.448 173.625 129.672 173.753 129.96C173.881 130.237 173.945 130.563 173.945 130.936C173.945 131.267 173.887 131.587 173.769 131.896C173.663 132.216 173.503 132.509 173.289 132.776C173.087 133.043 172.847 133.277 172.569 133.48C172.303 133.693 172.004 133.859 171.673 133.976ZM176.32 131L180.912 120.872L181.28 121.624H175.568V119.768H182.624L182.848 120.936L178.48 131H176.32ZM187.67 131C187.115 131 186.592 130.899 186.102 130.696C185.622 130.493 185.2 130.216 184.838 129.864C184.486 129.501 184.208 129.08 184.006 128.6C183.803 128.12 183.702 127.592 183.702 127.016C183.702 126.589 183.771 126.125 183.91 125.624C184.059 125.112 184.272 124.568 184.55 123.992C184.827 123.405 185.163 122.781 185.558 122.12L187.046 119.608H189.014L189.078 119.768L187.19 122.888C186.88 123.4 186.608 123.885 186.374 124.344C186.139 124.803 185.936 125.24 185.766 125.656C185.595 126.072 185.456 126.467 185.35 126.84L184.918 125.352C185.152 124.893 185.435 124.504 185.766 124.184C186.107 123.853 186.48 123.603 186.886 123.432C187.302 123.261 187.728 123.176 188.166 123.176C188.784 123.176 189.355 123.347 189.878 123.688C190.4 124.019 190.816 124.461 191.126 125.016C191.446 125.571 191.606 126.179 191.606 126.84C191.606 127.629 191.435 128.339 191.094 128.968C190.763 129.597 190.299 130.093 189.702 130.456C189.115 130.819 188.438 131 187.67 131ZM187.686 129.176C188.07 129.176 188.411 129.085 188.71 128.904C189.019 128.723 189.259 128.472 189.43 128.152C189.611 127.821 189.702 127.443 189.702 127.016C189.702 126.653 189.611 126.312 189.43 125.992C189.248 125.672 189.008 125.416 188.71 125.224C188.411 125.032 188.08 124.936 187.718 124.936C187.312 124.936 186.95 125.032 186.63 125.224C186.31 125.405 186.059 125.656 185.878 125.976C185.707 126.285 185.622 126.632 185.622 127.016C185.622 127.421 185.707 127.789 185.878 128.12C186.059 128.451 186.304 128.712 186.614 128.904C186.923 129.085 187.28 129.176 187.686 129.176ZM197.149 131.16C196.242 131.16 195.469 130.931 194.829 130.472C194.189 130.003 193.693 129.341 193.341 128.488C193 127.624 192.829 126.595 192.829 125.4C192.829 124.205 193 123.181 193.341 122.328C193.693 121.464 194.189 120.803 194.829 120.344C195.469 119.875 196.242 119.64 197.149 119.64C198.056 119.64 198.829 119.875 199.469 120.344C200.12 120.803 200.616 121.464 200.957 122.328C201.309 123.181 201.485 124.205 201.485 125.4C201.485 126.595 201.309 127.624 200.957 128.488C200.616 129.341 200.12 130.003 199.469 130.472C198.829 130.931 198.056 131.16 197.149 131.16ZM197.149 129.336C197.896 129.336 198.472 128.995 198.877 128.312C199.282 127.629 199.485 126.659 199.485 125.4C199.485 124.131 199.282 123.155 198.877 122.472C198.472 121.779 197.896 121.432 197.149 121.432C196.402 121.432 195.821 121.779 195.405 122.472C195 123.155 194.797 124.131 194.797 125.4C194.797 126.659 195 127.629 195.405 128.312C195.821 128.995 196.402 129.336 197.149 129.336ZM204.092 131.176C203.708 131.176 203.409 131.064 203.196 130.84C202.993 130.616 202.892 130.301 202.892 129.896C202.892 129.523 202.998 129.219 203.212 128.984C203.436 128.739 203.729 128.616 204.092 128.616C204.465 128.616 204.758 128.728 204.972 128.952C205.185 129.165 205.292 129.48 205.292 129.896C205.292 130.269 205.18 130.579 204.956 130.824C204.732 131.059 204.444 131.176 204.092 131.176ZM207.296 131L206.768 129.672L210.128 125.928C210.31 125.725 210.502 125.501 210.704 125.256C210.907 125 211.099 124.739 211.28 124.472C211.472 124.205 211.627 123.944 211.744 123.688C211.862 123.421 211.92 123.176 211.92 122.952C211.92 122.653 211.856 122.397 211.728 122.184C211.611 121.971 211.44 121.805 211.216 121.688C210.992 121.571 210.715 121.512 210.384 121.512C210.107 121.512 209.83 121.597 209.552 121.768C209.275 121.928 209.019 122.163 208.784 122.472C208.56 122.771 208.374 123.128 208.224 123.544L206.672 122.616C206.864 121.997 207.152 121.464 207.536 121.016C207.92 120.568 208.374 120.221 208.896 119.976C209.43 119.731 210.006 119.608 210.624 119.608C211.264 119.608 211.835 119.741 212.336 120.008C212.838 120.275 213.232 120.643 213.52 121.112C213.819 121.581 213.968 122.131 213.968 122.76C213.968 123.059 213.926 123.368 213.84 123.688C213.755 124.008 213.622 124.344 213.44 124.696C213.259 125.048 213.024 125.421 212.736 125.816C212.448 126.2 212.096 126.616 211.68 127.064L209.168 129.8L208.832 129.08H214.368V131H207.296ZM218.958 131.16C218.126 131.16 217.401 130.979 216.782 130.616C216.174 130.243 215.609 129.619 215.086 128.744L216.638 127.752C216.894 128.136 217.15 128.451 217.406 128.696C217.662 128.941 217.929 129.123 218.206 129.24C218.483 129.347 218.771 129.4 219.07 129.4C219.422 129.4 219.742 129.315 220.03 129.144C220.329 128.973 220.563 128.739 220.734 128.44C220.915 128.141 221.006 127.8 221.006 127.416C221.006 127.021 220.937 126.691 220.798 126.424C220.659 126.157 220.451 125.955 220.174 125.816C219.897 125.667 219.571 125.592 219.198 125.592C219.027 125.592 218.841 125.613 218.638 125.656C218.446 125.688 218.243 125.741 218.03 125.816C217.817 125.88 217.582 125.96 217.326 126.056L216.814 124.696L220.014 121.16L220.478 121.64L215.758 121.608V119.768H222.334L222.718 120.52L219.038 124.552L218.558 124.024C218.643 123.981 218.782 123.944 218.974 123.912C219.177 123.869 219.347 123.848 219.486 123.848C219.966 123.848 220.414 123.939 220.83 124.12C221.257 124.301 221.625 124.552 221.934 124.872C222.254 125.181 222.505 125.549 222.686 125.976C222.867 126.392 222.958 126.845 222.958 127.336C222.958 128.072 222.777 128.728 222.414 129.304C222.062 129.88 221.582 130.333 220.974 130.664C220.377 130.995 219.705 131.16 218.958 131.16Z" fill="#11183C"/>
<path d="M160.619 153.336V151.672H168.635V153.336H160.619ZM163.659 156.344L163.675 148.584H165.563V156.344H163.659ZM170.679 157L170.151 155.672L173.511 151.928C173.693 151.725 173.885 151.501 174.087 151.256C174.29 151 174.482 150.739 174.663 150.472C174.855 150.205 175.01 149.944 175.127 149.688C175.245 149.421 175.303 149.176 175.303 148.952C175.303 148.653 175.239 148.397 175.111 148.184C174.994 147.971 174.823 147.805 174.599 147.688C174.375 147.571 174.098 147.512 173.767 147.512C173.49 147.512 173.213 147.597 172.935 147.768C172.658 147.928 172.402 148.163 172.167 148.472C171.943 148.771 171.757 149.128 171.607 149.544L170.055 148.616C170.247 147.997 170.535 147.464 170.919 147.016C171.303 146.568 171.757 146.221 172.279 145.976C172.813 145.731 173.389 145.608 174.007 145.608C174.647 145.608 175.218 145.741 175.719 146.008C176.221 146.275 176.615 146.643 176.903 147.112C177.202 147.581 177.351 148.131 177.351 148.76C177.351 149.059 177.309 149.368 177.223 149.688C177.138 150.008 177.005 150.344 176.823 150.696C176.642 151.048 176.407 151.421 176.119 151.816C175.831 152.2 175.479 152.616 175.063 153.064L172.551 155.8L172.215 155.08H177.751V157H170.679ZM180.037 157.176C179.653 157.176 179.354 157.064 179.141 156.84C178.938 156.616 178.837 156.301 178.837 155.896C178.837 155.523 178.943 155.219 179.157 154.984C179.381 154.739 179.674 154.616 180.037 154.616C180.41 154.616 180.703 154.728 180.917 154.952C181.13 155.165 181.237 155.48 181.237 155.896C181.237 156.269 181.125 156.579 180.901 156.824C180.677 157.059 180.389 157.176 180.037 157.176ZM186.506 157C185.951 157 185.428 156.899 184.938 156.696C184.458 156.493 184.036 156.216 183.674 155.864C183.322 155.501 183.044 155.08 182.842 154.6C182.639 154.12 182.538 153.592 182.538 153.016C182.538 152.589 182.607 152.125 182.746 151.624C182.895 151.112 183.108 150.568 183.386 149.992C183.663 149.405 183.999 148.781 184.394 148.12L185.882 145.608H187.85L187.914 145.768L186.026 148.888C185.716 149.4 185.444 149.885 185.21 150.344C184.975 150.803 184.772 151.24 184.602 151.656C184.431 152.072 184.292 152.467 184.186 152.84L183.754 151.352C183.988 150.893 184.271 150.504 184.602 150.184C184.943 149.853 185.316 149.603 185.722 149.432C186.138 149.261 186.564 149.176 187.002 149.176C187.62 149.176 188.191 149.347 188.714 149.688C189.236 150.019 189.652 150.461 189.962 151.016C190.282 151.571 190.442 152.179 190.442 152.84C190.442 153.629 190.271 154.339 189.93 154.968C189.599 155.597 189.135 156.093 188.538 156.456C187.951 156.819 187.274 157 186.506 157ZM186.522 155.176C186.906 155.176 187.247 155.085 187.546 154.904C187.855 154.723 188.095 154.472 188.266 154.152C188.447 153.821 188.538 153.443 188.538 153.016C188.538 152.653 188.447 152.312 188.266 151.992C188.084 151.672 187.844 151.416 187.546 151.224C187.247 151.032 186.916 150.936 186.554 150.936C186.148 150.936 185.786 151.032 185.466 151.224C185.146 151.405 184.895 151.656 184.714 151.976C184.543 152.285 184.458 152.632 184.458 153.016C184.458 153.421 184.543 153.789 184.714 154.12C184.895 154.451 185.14 154.712 185.45 154.904C185.759 155.085 186.116 155.176 186.522 155.176ZM195.985 157.16C195.078 157.16 194.305 156.931 193.665 156.472C193.025 156.003 192.529 155.341 192.177 154.488C191.836 153.624 191.665 152.595 191.665 151.4C191.665 150.205 191.836 149.181 192.177 148.328C192.529 147.464 193.025 146.803 193.665 146.344C194.305 145.875 195.078 145.64 195.985 145.64C196.892 145.64 197.665 145.875 198.305 146.344C198.956 146.803 199.452 147.464 199.793 148.328C200.145 149.181 200.321 150.205 200.321 151.4C200.321 152.595 200.145 153.624 199.793 154.488C199.452 155.341 198.956 156.003 198.305 156.472C197.665 156.931 196.892 157.16 195.985 157.16ZM195.985 155.336C196.732 155.336 197.308 154.995 197.713 154.312C198.118 153.629 198.321 152.659 198.321 151.4C198.321 150.131 198.118 149.155 197.713 148.472C197.308 147.779 196.732 147.432 195.985 147.432C195.238 147.432 194.657 147.779 194.241 148.472C193.836 149.155 193.633 150.131 193.633 151.4C193.633 152.659 193.836 153.629 194.241 154.312C194.657 154.995 195.238 155.336 195.985 155.336ZM203.295 157L210.703 145.8H212.607L205.119 157H203.295ZM204.239 151.736C203.738 151.736 203.29 151.603 202.895 151.336C202.511 151.069 202.207 150.707 201.983 150.248C201.77 149.789 201.663 149.267 201.663 148.68C201.663 148.083 201.77 147.555 201.983 147.096C202.207 146.627 202.511 146.264 202.895 146.008C203.29 145.741 203.738 145.608 204.239 145.608C204.751 145.608 205.199 145.741 205.583 146.008C205.967 146.264 206.266 146.627 206.479 147.096C206.693 147.555 206.799 148.083 206.799 148.68C206.799 149.256 206.687 149.779 206.463 150.248C206.239 150.707 205.935 151.069 205.551 151.336C205.167 151.603 204.73 151.736 204.239 151.736ZM204.239 150.376C204.453 150.376 204.634 150.307 204.783 150.168C204.933 150.029 205.045 149.837 205.119 149.592C205.205 149.336 205.247 149.032 205.247 148.68C205.247 148.328 205.205 148.024 205.119 147.768C205.045 147.512 204.933 147.315 204.783 147.176C204.634 147.037 204.453 146.968 204.239 146.968C204.026 146.968 203.839 147.043 203.679 147.192C203.53 147.331 203.413 147.528 203.327 147.784C203.242 148.029 203.199 148.328 203.199 148.68C203.199 149.203 203.29 149.619 203.471 149.928C203.663 150.227 203.919 150.376 204.239 150.376ZM211.791 157.144C211.29 157.144 210.842 157.011 210.447 156.744C210.063 156.477 209.759 156.115 209.535 155.656C209.311 155.197 209.199 154.675 209.199 154.088C209.199 153.501 209.306 152.973 209.519 152.504C209.743 152.035 210.047 151.672 210.431 151.416C210.826 151.149 211.279 151.016 211.791 151.016C212.293 151.016 212.735 151.149 213.119 151.416C213.503 151.672 213.802 152.035 214.015 152.504C214.229 152.973 214.335 153.501 214.335 154.088C214.335 154.664 214.223 155.187 213.999 155.656C213.786 156.115 213.487 156.477 213.103 156.744C212.719 157.011 212.282 157.144 211.791 157.144ZM211.791 155.8C211.994 155.8 212.17 155.731 212.319 155.592C212.479 155.443 212.597 155.245 212.671 155C212.757 154.744 212.799 154.44 212.799 154.088C212.799 153.576 212.709 153.165 212.527 152.856C212.346 152.536 212.101 152.376 211.791 152.376C211.578 152.376 211.391 152.445 211.231 152.584C211.071 152.723 210.949 152.925 210.863 153.192C210.789 153.448 210.751 153.747 210.751 154.088C210.751 154.611 210.842 155.027 211.023 155.336C211.215 155.645 211.471 155.8 211.791 155.8Z" fill="#098C26"/>
<defs>
<filter id="filter0_f_33_2204" x="149.427" y="171.369" width="59.5425" height="54.3011" filterUnits="userSpaceOnUse" color-interpolation-filters="sRGB">
<feFlood flood-opacity="0" result="BackgroundImageFix"/>
<feBlend mode="normal" in="SourceGraphic" in2="BackgroundImageFix" result="shape"/>
<feGaussianBlur stdDeviation="8.67813" result="effect1_foregroundBlur_33_2204"/>
</filter>
<filter id="filter1_f_33_2204" x="171.866" y="160.761" width="86.4371" height="64.4884" filterUnits="userSpaceOnUse" color-interpolation-filters="sRGB">
<feFlood flood-opacity="0" result="BackgroundImageFix"/>
<feBlend mode="normal" in="SourceGraphic" in2="BackgroundImageFix" result="shape"/>
<feGaussianBlur stdDeviation="8.67813" result="effect1_foregroundBlur_33_2204"/>
</filter>
<filter id="filter2_f_33_2204" x="222.643" y="123.047" width="70.2172" height="77.4874" filterUnits="userSpaceOnUse" color-interpolation-filters="sRGB">
<feFlood flood-opacity="0" result="BackgroundImageFix"/>
<feBlend mode="normal" in="SourceGraphic" in2="BackgroundImageFix" result="shape"/>
<feGaussianBlur stdDeviation="8.67813" result="effect1_foregroundBlur_33_2204"/>
</filter>
<filter id="filter3_f_33_2204" x="165.305" y="0.247013" width="135.511" height="153.257" filterUnits="userSpaceOnUse" color-interpolation-filters="sRGB">
<feFlood flood-opacity="0" result="BackgroundImageFix"/>
<feBlend mode="normal" in="SourceGraphic" in2="BackgroundImageFix" result="shape"/>
<feGaussianBlur stdDeviation="8.67813" result="effect1_foregroundBlur_33_2204"/>
</filter>
<filter id="filter4_f_33_2204" x="75.1841" y="2.25971" width="120.037" height="216.201" filterUnits="userSpaceOnUse" color-interpolation-filters="sRGB">
<feFlood flood-opacity="0" result="BackgroundImageFix"/>
<feBlend mode="normal" in="SourceGraphic" in2="BackgroundImageFix" result="shape"/>
<feGaussianBlur stdDeviation="8.67813" result="effect1_foregroundBlur_33_2204"/>
</filter>
</defs>
</svg>
